<?xml version="1.0" standalone="no"?>
<!DOCTYPE svg PUBLIC "-//W3C//DTD SVG 20010904//EN"
 "http://www.w3.org/TR/2001/REC-SVG-20010904/DTD/svg10.dtd">
<svg version="1.0" xmlns="http://www.w3.org/2000/svg"
 width="400.000000pt" height="400.000000pt" viewBox="0 0 400.000000 400.000000"
 preserveAspectRatio="xMidYMid meet">
<metadata>
Created by potrace 1.14, written by Peter Selinger 2001-2017
</metadata>
<g transform="translate(0.000000,400.000000) scale(0.100000,-0.100000)"
fill="#000000" stroke="none">
<path d="M0 2000 l0 -2001 1060 1 c704 1 1060 5 1060 11 0 6 10 8 23 4 17 -5
19 -4 7 4 -8 6 -13 11 -10 12 3 0 13 2 23 4 9 2 17 -1 17 -7 0 -6 6 -5 15 2
12 10 15 10 15 -3 0 -8 -6 -18 -13 -20 -6 -3 396 -6 896 -6 l907 -1 0 1637 0
1638 -53 0 c-40 0 -52 4 -52 15 0 25 -64 43 -164 46 -84 2 -125 13 -109 30 8
7 267 13 286 6 6 -2 12 -10 12 -17 0 -19 27 -26 42 -11 7 7 19 11 26 8 9 -3
12 67 12 322 l0 326 -969 0 c-786 -1 -969 -3 -965 -14 6 -16 84 -20 84 -5 0 8
4 8 14 0 11 -9 16 -9 22 0 15 25 32 -19 24 -63 -9 -48 -6 -60 15 -51 8 3 15 0
15 -7 0 -6 -4 -8 -10 -5 -5 3 -10 1 -10 -6 0 -7 -12 3 -26 22 -26 33 -26 34
-22 7 3 -15 1 -25 -3 -22 -5 3 -9 0 -9 -7 0 -6 8 -9 19 -6 12 3 22 -1 25 -9 4
-9 -2 -14 -15 -14 -11 0 -18 -4 -15 -9 3 -5 -1 -11 -9 -15 -8 -3 -17 -1 -20 4
-4 6 -16 10 -28 10 -15 0 -18 3 -9 8 7 5 10 16 6 25 -9 24 5 41 22 26 17 -14
29 -6 21 14 -6 16 -57 11 -57 -5 0 -7 -4 -7 -12 0 -9 7 -20 5 -37 -9 -21 -17
-20 -24 2 -20 5 1 6 -3 3 -8 -9 -14 -44 -1 -49 18 -3 11 -5 10 -6 -6 -1 -24
-32 -26 -67 -4 -17 11 -17 12 8 8 15 -2 25 0 22 4 -3 5 3 9 13 10 13 0 12 3
-7 11 -24 10 -24 10 -5 19 14 6 10 7 -15 3 -23 -3 -30 -2 -22 4 11 7 9 10 -7
15 -12 3 -19 1 -15 -4 3 -5 -6 -9 -20 -9 -14 0 -28 5 -32 12 -5 7 -12 5 -22
-8 -13 -16 -14 -17 -9 -1 4 9 2 17 -3 17 -6 0 -10 -5 -10 -11 0 -6 -13 -1 -29
10 -15 11 -31 18 -34 14 -4 -3 -13 -1 -20 5 -8 7 -18 8 -22 4 -5 -4 -5 -1 -1
6 4 6 14 12 22 12 9 0 22 7 30 15 14 13 11 15 -25 15 -26 0 -41 -5 -41 -12 0
-10 -2 -10 -8 -1 -6 9 -36 12 -103 10 -83 -2 -94 -4 -93 -19 1 -11 -5 -18 -17
-18 -25 0 -69 -21 -64 -31 3 -4 1 -10 -4 -14 -6 -3 -8 5 -5 18 2 16 -1 24 -11
24 -8 0 -15 -4 -15 -9 0 -4 -4 -8 -10 -8 -5 0 -10 9 -10 21 0 11 -4 17 -10 14
-5 -3 -10 0 -10 7 0 11 -2 10 -9 0 -7 -11 -9 -11 -14 2 -6 14 -73 16 -657 16
l-650 0 0 -2000z m2357 1975 c12 -3 23 -14 25 -28 5 -25 -17 -77 -32 -77 -6 0
-16 -15 -24 -32 -8 -18 -15 -26 -15 -17 -1 9 -9 23 -18 30 -15 12 -16 12 -10
-5 6 -15 5 -17 -6 -8 -8 7 -17 9 -20 5 -4 -3 -7 5 -7 20 0 14 6 28 13 31 6 3
2 3 -10 0 -17 -4 -23 -1 -23 11 0 9 5 13 11 10 5 -4 20 4 33 18 18 20 20 26 9
33 -17 11 39 17 74 9z m-113 -33 c3 -5 -1 -9 -9 -9 -8 0 -12 4 -9 9 3 4 7 8 9
8 2 0 6 -4 9 -8z m506 -2 c0 -5 -5 -10 -11 -10 -5 0 -7 5 -4 10 3 6 8 10 11
10 2 0 4 -4 4 -10z m634 -12 c-6 -21 -5 -22 12 -9 10 7 3 -1 -16 -18 -19 -17
-36 -27 -38 -21 -2 5 -11 10 -20 10 -13 0 -14 -2 -4 -9 10 -6 6 -10 -15 -16
-26 -7 -26 -8 -8 -16 19 -8 19 -9 1 -6 -11 1 -18 6 -17 11 2 5 -3 13 -11 18
-9 7 -6 8 10 5 16 -4 22 -2 19 7 -6 15 48 50 63 41 6 -3 13 1 16 9 9 25 16 19
8 -6z m-2024 -42 c0 -2 -8 -10 -17 -17 -16 -13 -17 -12 -4 4 13 16 21 21 21
13z m2260 -11 c0 -5 5 -3 10 5 9 13 11 13 20 0 9 -13 11 -13 20 0 5 8 10 10
10 4 0 -6 10 -9 24 -7 27 5 44 -12 21 -21 -8 -3 -15 -1 -15 5 0 6 -5 7 -10 4
-6 -4 -8 -10 -6 -14 3 -4 -1 -8 -9 -8 -8 0 -15 5 -15 11 0 6 -8 2 -17 -9 -11
-15 -14 -16 -10 -3 5 14 -1 16 -36 13 -23 -2 -46 -4 -52 -5 -5 0 -3 -5 5 -11
11 -7 6 -8 -20 -4 -19 4 -44 6 -55 6 -19 0 -19 1 3 19 18 15 28 17 42 10 24
-13 30 -13 30 3 0 7 13 12 30 12 17 1 30 -4 30 -10z m-1523 -32 c-3 -3 -13 1
-21 10 -8 8 -12 17 -9 20 3 3 12 -1 20 -9 9 -8 13 -18 10 -21z m1349 -11 c-9
-17 -13 -39 -9 -49 6 -16 5 -17 -12 -3 -17 14 -17 13 -10 -9 5 -17 4 -22 -6
-18 -8 2 -13 10 -11 17 1 7 -4 23 -13 36 -18 28 -19 35 -2 29 6 -3 25 4 42 15
36 24 41 20 21 -18z m-1086 13 c0 -8 -4 -15 -10 -15 -5 0 -10 7 -10 15 0 8 5
15 10 15 6 0 10 -7 10 -15z m900 7 c0 -4 -11 -8 -24 -8 -14 0 -22 4 -20 8 3 4
14 8 25 8 10 0 19 -4 19 -8z m360 -22 c0 -5 -2 -10 -4 -10 -3 0 -8 5 -11 10
-3 6 -1 10 4 10 6 0 11 -4 11 -10z m-383 -22 c-3 -8 -6 -5 -6 6 -1 11 2 17 5
13 3 -3 4 -12 1 -19z m43 2 c0 -5 -5 -10 -11 -10 -5 0 -7 5 -4 10 3 6 8 10 11
10 2 0 4 -4 4 -10z m-635 -29 c2 -11 0 -21 -5 -21 -5 0 -7 -6 -4 -14 3 -8 0
-17 -7 -22 -7 -4 -10 -3 -5 4 3 6 1 14 -5 18 -8 4 -9 3 -5 -4 5 -8 -1 -12 -16
-13 l-23 -2 23 -4 c13 -3 19 -9 16 -15 -4 -7 -2 -8 4 -4 7 4 12 1 12 -6 0 -7
6 -2 13 12 7 14 12 41 11 62 -2 34 0 36 24 34 15 -2 40 -8 56 -15 21 -9 32 -9
42 0 11 9 14 8 14 -5 0 -13 5 -16 21 -11 16 5 19 4 14 -6 -6 -9 -2 -11 14 -6
17 4 20 3 11 -8 -9 -10 -4 -10 27 1 48 17 66 17 58 2 -4 -7 2 -2 13 11 19 23
20 23 43 6 22 -16 22 -17 3 -13 -19 5 -19 3 -10 -29 6 -19 12 -27 14 -19 5 22
22 20 23 -1 0 -13 3 -11 10 7 9 23 11 23 20 8 11 -20 29 -24 29 -7 0 5 -5 7
-12 3 -7 -4 -8 -3 -4 5 4 6 16 9 27 6 11 -4 19 -2 19 4 0 6 3 10 8 9 12 -2 46
15 66 34 19 17 21 17 43 -4 13 -12 23 -26 22 -32 0 -6 -3 -5 -6 2 -2 6 -11 12
-20 12 -13 0 -13 -2 1 -15 19 -19 36 -19 36 -1 0 15 35 16 58 2 8 -5 10 -2 6
9 -4 9 -13 14 -21 11 -8 -3 -11 -1 -8 4 7 12 35 14 35 2 0 -4 9 -13 19 -19 18
-11 19 -9 16 22 -2 19 1 35 6 35 5 0 10 -8 10 -17 1 -10 2 -25 3 -33 1 -8 -3
-21 -8 -28 -7 -9 -4 -11 10 -6 15 5 14 3 -3 -10 -13 -10 -23 -22 -23 -27 0
-14 -26 -39 -40 -39 -6 0 -13 -6 -16 -14 -3 -8 -13 -15 -22 -14 -9 0 -27 -3
-40 -6 -17 -4 -25 0 -32 17 l-9 22 0 -23 c-1 -17 -6 -22 -18 -20 -11 2 -17 12
-16 23 1 11 0 14 -3 8 -3 -7 -12 -13 -20 -13 -9 0 -12 -5 -9 -11 4 -6 1 -9 -7
-7 -7 2 -15 0 -16 -4 -5 -19 -1 -28 16 -28 14 0 15 -2 2 -10 -8 -5 -10 -10 -5
-11 6 0 20 -2 33 -5 13 -2 21 0 17 5 -3 5 -1 12 4 15 11 7 9 -13 -2 -31 -6 -9
-3 -11 7 -7 9 3 16 9 16 13 0 4 18 6 41 6 22 0 43 4 46 9 4 5 0 6 -8 1 -8 -5
-10 -4 -6 0 10 12 38 15 31 4 -3 -5 0 -9 6 -9 6 0 8 -5 4 -12 -6 -10 -4 -10 7
-2 21 16 51 26 44 14 -3 -6 -1 -10 6 -10 7 0 21 -7 31 -17 14 -12 18 -13 18
-3 0 10 3 11 11 3 8 -8 23 -8 55 2 24 7 44 10 44 7 0 -4 5 0 10 8 5 8 10 10
10 5 0 -6 27 -11 63 -11 115 -1 127 -3 127 -19 0 -9 -11 -20 -25 -25 -14 -5
-25 -14 -25 -20 0 -5 -13 -10 -28 -10 -34 0 -122 -29 -122 -40 0 -4 -7 -11
-16 -14 -8 -3 -13 -2 -10 3 4 5 -3 7 -14 4 -11 -3 -18 -9 -15 -13 3 -4 -2 -11
-11 -14 -8 -3 -12 -2 -9 4 8 12 -48 8 -57 -5 -5 -6 -8 -4 -8 5 0 13 -1 13 -10
0 -5 -8 -10 -10 -10 -5 0 6 -17 9 -41 7 -40 -4 -41 -4 -29 18 7 12 8 20 2 16
-5 -3 -15 1 -22 9 -14 17 -40 20 -40 5 0 -6 -17 -2 -37 8 -21 9 -56 17 -78 17
-28 0 -46 6 -58 19 -14 16 -20 17 -26 7 -6 -9 -10 -6 -16 11 -6 20 -8 21 -12
5 -4 -16 -11 -18 -39 -12 -27 5 -34 3 -34 -10 0 -8 -9 -15 -21 -15 -11 0 -17
5 -14 10 4 6 11 8 16 5 5 -4 9 -1 9 4 0 6 -5 11 -11 11 -6 0 -8 7 -4 18 5 13
3 14 -6 5 -6 -6 -18 -9 -26 -6 -9 4 -24 -6 -39 -23 -23 -29 -24 -29 -30 -6 -6
21 -24 31 -24 13 0 -10 -53 -7 -70 4 -6 3 -15 -5 -22 -20 -6 -14 -16 -24 -22
-22 -6 2 -22 0 -35 -5 -14 -5 -28 -5 -35 1 -7 6 -17 6 -26 1 -8 -6 -27 -10
-42 -10 -16 0 -28 -5 -28 -11 0 -5 -5 -7 -10 -4 -6 4 -7 11 -4 17 5 7 2 8 -7
2 -20 -12 -38 -14 -44 -3 -4 6 -60 -6 -60 -13 0 -1 -10 4 -22 11 -15 7 -23 8
-23 1 0 -13 -37 -13 -45 0 -3 6 1 7 9 4 11 -4 16 0 16 15 0 12 -6 21 -12 22
-7 0 -21 2 -30 4 -10 2 -22 -4 -28 -13 -5 -10 -10 -12 -10 -5 0 7 -11 1 -25
-13 -20 -20 -29 -23 -39 -14 -11 8 -15 8 -18 -1 -3 -8 -9 -9 -19 -4 -8 5 -23
8 -33 6 -14 -2 -17 2 -13 13 6 16 -8 23 -17 8 -8 -14 10 -33 32 -35 12 -1 22
-5 22 -9 0 -4 -2 -8 -4 -8 -2 0 -12 -3 -22 -7 -12 -4 -15 -3 -10 5 7 12 -4 16
-34 13 -13 -2 -13 -1 0 8 12 8 12 13 2 23 -11 11 -15 2 -11 -28 0 -4 -5 -11
-13 -16 -9 -7 -7 -8 10 -5 12 3 20 1 16 -4 -3 -5 -12 -9 -20 -9 -8 0 -14 -5
-14 -11 0 -5 -4 -7 -10 -4 -5 3 -10 -1 -10 -9 0 -10 -6 -13 -17 -9 -12 5 -14
3 -8 -8 7 -12 6 -12 -7 -1 -13 10 -18 10 -24 1 -5 -8 -3 -9 6 -4 9 5 11 4 6
-4 -4 -6 -13 -8 -19 -4 -15 9 -67 11 -67 2 0 -4 -13 -6 -29 -5 -16 0 -27 4
-25 8 7 11 -10 10 -41 -2 -17 -7 -24 -7 -20 0 3 6 -3 10 -14 10 -12 0 -21 7
-21 15 0 8 -4 15 -9 15 -5 0 -6 -10 -3 -22 5 -22 5 -22 -12 -5 -21 20 -32 22
-39 5 -3 -8 -6 -6 -6 4 -1 11 -6 15 -16 12 -8 -4 -21 -2 -28 4 -6 5 -36 9 -64
8 -29 0 -53 2 -53 7 0 4 -9 3 -19 -3 -14 -7 -22 -7 -26 0 -5 7 -11 8 -19 1 -6
-5 -17 -6 -24 -2 -6 4 -27 6 -44 5 -31 -2 -32 -1 -14 12 11 8 16 14 12 14 -14
0 -56 -37 -49 -44 3 -3 -3 -6 -14 -6 -12 0 -23 7 -27 15 -4 10 1 15 14 15 11
0 20 4 20 9 0 5 -15 7 -32 5 -25 -4 -29 -2 -18 5 12 9 11 11 -8 11 -13 0 -20
4 -17 10 3 6 -1 10 -9 10 -19 0 -21 16 -3 23 6 3 2 6 -10 6 -12 1 -23 4 -26 9
-2 4 -3 2 -1 -4 1 -6 -9 -17 -22 -23 -35 -16 -44 -13 -14 4 l25 14 -30 -2
c-16 -1 -35 -9 -42 -17 -11 -13 -12 -13 -13 3 0 17 -1 17 -16 3 -19 -20 -19
-20 -38 0 -14 14 -17 14 -22 0 -3 -8 -12 -12 -20 -9 -8 3 -12 9 -9 14 3 4 -4
6 -16 4 -15 -3 -19 0 -15 11 3 8 2 12 -3 9 -5 -3 -13 0 -16 6 -4 5 -13 8 -21
5 -7 -3 -16 0 -20 6 -4 7 -3 8 4 4 6 -4 17 2 24 14 7 11 18 20 24 20 6 0 17 6
23 14 10 12 8 13 -8 9 -14 -3 -21 -1 -21 8 1 16 27 54 38 54 4 0 6 4 4 9 -2 5
8 2 21 -7 16 -10 28 -12 40 -5 9 5 17 6 17 2 0 -3 7 -1 15 6 8 7 15 9 15 4 0
-5 4 -3 9 4 10 17 181 25 181 9 0 -6 3 -8 6 -4 3 3 17 2 30 -4 18 -6 26 -5 30
4 3 8 12 14 22 14 24 0 56 -33 46 -48 -5 -9 -2 -10 10 -6 13 5 17 3 13 -5 -7
-21 15 -33 58 -33 22 0 43 -4 47 -10 5 -6 8 -6 8 2 0 6 9 9 20 6 11 -3 20 -10
20 -15 0 -6 14 -8 31 -6 20 3 33 0 36 -9 3 -7 9 -13 15 -13 5 0 6 5 2 12 -5 8
-2 9 9 5 12 -4 17 -1 17 11 0 15 2 15 10 2 8 -12 10 -12 10 -1 0 10 3 11 14 2
11 -9 17 -8 29 4 12 11 17 12 20 2 3 -8 13 -4 31 12 23 21 26 22 26 7 0 -17 2
-17 23 -3 20 13 23 36 5 29 -15 -4 -8 39 7 44 8 4 12 11 8 18 -4 6 1 5 10 -3
11 -9 17 -10 17 -2 0 7 9 9 26 5 19 -5 25 -4 20 5 -4 6 -11 9 -16 6 -5 -3 -11
-1 -14 4 -5 8 15 8 34 1 3 -1 9 -2 13 -1 5 1 6 -3 2 -8 -7 -12 29 -33 40 -23
5 4 5 -2 1 -13 -5 -16 -2 -14 17 7 15 17 34 27 53 28 57 2 74 4 74 12 0 14 23
8 36 -9 13 -17 15 -17 24 -1 9 14 16 15 40 7 16 -6 28 -15 27 -21 -1 -6 6 -12
16 -13 9 -2 15 1 11 6 -3 5 0 9 5 9 6 0 11 -6 11 -12 0 -9 4 -8 10 2 8 12 10
12 11 -5 0 -15 2 -16 6 -5 9 21 44 51 54 44 5 -3 6 2 3 10 -4 11 0 16 12 17
11 0 27 2 37 4 9 2 17 -2 17 -8 0 -7 5 -5 10 3 9 13 10 13 11 0 0 -10 3 -8 9
5 5 11 9 14 9 8 1 -7 8 -13 17 -13 10 0 14 5 10 16 -3 8 -2 12 4 9 6 -3 13 1
16 9 3 9 9 14 14 11 4 -2 16 2 26 10 22 16 23 15 29 -14z m709 -7 c3 -8 2 -12
-4 -9 -6 3 -10 10 -10 16 0 14 7 11 14 -7z m121 -4 c3 -5 -1 -10 -10 -10 -9 0
-13 5 -10 10 3 6 8 10 10 10 2 0 7 -4 10 -10z m-3048 -6 c-3 -3 -12 -4 -19 -1
-8 3 -5 6 6 6 11 1 17 -2 13 -5z m1420 -12 c0 -10 -6 -19 -13 -19 -9 0 -9 5
-1 19 7 10 13 18 14 18 1 0 1 -8 0 -18z m-1287 -7 c11 -13 10 -14 -4 -9 -9 3
-16 10 -16 15 0 13 6 11 20 -6z m-126 -3 c2 -4 -4 -8 -15 -8 -10 0 -19 4 -19
8 0 4 6 8 14 8 8 0 17 -4 20 -8z m253 -12 c16 -9 15 -10 -6 -4 -15 4 -21 2
-17 -4 3 -6 2 -13 -4 -17 -6 -3 -13 1 -16 10 -5 12 -14 15 -33 11 -25 -6 -25
-6 -7 9 21 16 53 14 83 -5z m1438 -10 c-3 -5 -10 -10 -16 -10 -5 0 -9 5 -9 10
0 6 7 10 16 10 8 0 12 -4 9 -10z m1709 -109 c3 -5 24 -6 47 -4 l41 5 -18 -27
c-13 -20 -19 -23 -25 -13 -5 7 -9 8 -9 3 0 -6 -12 -12 -26 -13 -15 -1 -40 -16
-56 -32 -15 -17 -29 -30 -31 -30 -1 0 -4 13 -5 30 -2 24 1 28 15 23 11 -4 14
-3 9 6 -4 6 0 23 8 36 17 25 40 33 50 16z m-2946 -66 c-3 -3 -9 2 -12 12 -6
14 -5 15 5 6 7 -7 10 -15 7 -18z m2307 -95 c3 -6 -1 -7 -9 -4 -18 7 -21 14 -7
14 6 0 13 -4 16 -10z m95 -20 c0 -5 -5 -10 -11 -10 -5 0 -7 5 -4 10 3 6 8 10
11 10 2 0 4 -4 4 -10z m-2305 -19 c3 -5 2 -12 -3 -15 -5 -3 -9 1 -9 9 0 17 3
19 12 6z m285 -9 c0 -14 -2 -14 -9 -3 -7 11 -10 9 -16 -8 -6 -21 -35 -30 -35
-11 0 6 6 9 13 8 6 -2 12 4 11 12 -1 9 7 17 17 17 12 1 19 -5 19 -15z m-158
-36 c4 -19 1 -23 -11 -19 -9 4 -21 10 -27 14 -6 5 -14 6 -17 2 -4 -3 -7 1 -7
9 0 11 6 14 20 11 12 -3 20 0 20 6 0 21 17 2 22 -23z m47 18 c6 4 11 0 11 -8
0 -9 -4 -16 -9 -16 -5 0 -13 -9 -16 -20 -3 -11 -11 -20 -17 -20 -7 0 -7 4 1
13 7 9 7 17 0 24 -5 5 -7 18 -3 27 5 13 9 14 14 6 4 -7 13 -9 19 -6z m-159
-34 c0 -5 -2 -10 -4 -10 -3 0 -8 5 -11 10 -3 6 -1 10 4 10 6 0 11 -4 11 -10z
m250 -25 c14 -19 14 -19 -2 -6 -10 7 -18 18 -18 24 0 6 1 8 3 6 1 -2 9 -13 17
-24z m1598 -30 c-3 -3 -15 -8 -28 -10 -12 -2 -28 -9 -36 -16 -10 -8 -14 -8
-14 0 0 6 4 11 10 11 5 0 12 11 16 25 7 29 21 33 27 8 3 -13 5 -11 7 7 l1 25
11 -23 c6 -12 9 -25 6 -27z m-1585 3 c4 1 7 -4 7 -12 0 -8 -7 -16 -15 -18 -20
-4 -4 -27 23 -33 12 -2 24 1 27 6 4 5 10 7 15 4 5 -3 12 0 16 7 4 7 3 10 -1 5
-5 -4 -17 1 -27 10 -18 16 -19 16 -25 -5 -3 -12 -10 -19 -15 -16 -5 3 -2 14 7
24 9 10 14 25 10 32 -3 7 -1 6 7 -2 34 -39 111 -69 124 -49 3 5 10 7 15 3 5
-3 7 -9 4 -14 -3 -5 9 -9 28 -8 19 1 39 -2 45 -6 7 -4 12 -1 12 6 0 9 3 9 10
-2 9 -13 10 -13 10 0 0 13 1 13 10 0 5 -8 10 -10 10 -4 0 7 11 14 25 16 13 3
22 1 19 -3 -3 -5 0 -9 5 -9 6 0 11 6 11 13 0 7 3 8 8 2 11 -15 46 -19 36 -4
-5 9 -2 10 12 4 27 -11 74 -13 68 -3 -3 4 -3 8 0 8 2 0 11 3 20 6 11 4 16 0
17 -12 0 -18 1 -17 9 1 l9 20 1 -20 1 -20 9 20 c5 11 9 14 9 8 1 -7 7 -13 15
-13 8 0 17 6 19 13 4 9 7 9 15 -1 5 -7 24 -14 43 -14 19 0 40 -5 47 -11 8 -6
12 -6 12 2 0 15 43 9 64 -8 19 -16 22 -1 4 19 -11 12 -10 12 2 3 20 -15 99
-10 109 6 6 9 10 6 14 -10 5 -17 9 -20 19 -12 7 6 21 9 31 8 9 -2 17 1 17 7 0
7 5 6 14 -1 10 -8 16 -9 21 -1 9 15 55 13 51 -2 -1 -7 -1 -10 1 -5 8 13 103 8
103 -5 0 -7 5 -5 11 4 9 17 12 17 35 1 14 -9 23 -22 20 -30 -3 -8 -2 -12 3 -9
5 3 14 -1 21 -9 11 -14 17 -12 43 15 l31 31 14 -27 c13 -24 15 -25 24 -10 8
14 12 15 25 4 13 -10 17 -10 20 0 3 6 11 12 19 12 9 0 12 5 9 10 -3 6 2 10 12
10 11 0 25 6 32 13 10 10 15 9 24 -3 12 -16 47 -23 47 -10 0 4 11 12 25 18 21
10 25 9 25 -3 0 -8 5 -15 11 -15 5 0 8 4 5 9 -3 5 11 3 32 -4 20 -7 50 -12 65
-10 21 3 27 0 23 -10 -3 -8 -1 -17 4 -20 6 -4 10 -1 10 5 0 6 5 8 12 4 8 -5 9
-1 5 12 -7 18 -7 18 7 0 8 -10 19 -15 25 -11 6 3 11 2 11 -3 0 -5 20 -8 45 -7
44 3 66 -8 49 -25 -5 -5 -26 -10 -47 -12 -20 -1 -37 -6 -37 -11 0 -4 -4 -5
-10 -2 -5 3 -10 1 -10 -4 0 -6 14 -11 31 -11 21 0 28 4 23 13 -6 9 -4 9 8 -1
9 -7 28 -11 42 -8 14 3 26 1 26 -4 0 -5 14 -7 30 -5 22 3 29 1 23 -8 -5 -8 -2
-8 9 1 9 7 19 9 22 4 7 -12 89 -7 93 5 2 6 -10 13 -26 16 -21 5 -29 11 -25 21
10 25 124 37 124 13 0 -8 7 -14 15 -14 8 0 15 5 15 10 0 5 7 4 15 -3 11 -9 15
-9 15 -1 0 9 5 9 21 0 12 -6 19 -7 15 -1 -6 9 50 14 214 16 83 2 100 -1 100
-17 0 -6 -3 -8 -6 -5 -7 7 -42 -24 -38 -33 4 -7 -64 -3 -96 6 -19 5 -22 4 -10
-4 13 -9 13 -11 -2 -11 -9 0 -19 -6 -21 -12 -3 -8 -6 -6 -6 5 -1 9 -6 17 -12
17 -5 0 -7 -4 -4 -10 7 -11 -11 -13 -91 -12 -45 0 -50 -2 -50 -21 1 -15 -7
-22 -29 -27 -16 -4 -41 -13 -55 -21 -24 -13 -30 -15 -57 -18 -7 0 -13 -6 -13
-12 0 -8 14 -10 39 -6 21 2 45 1 52 -4 28 -17 -55 -68 -101 -61 -8 1 -28 -9
-44 -23 -29 -25 -122 -65 -164 -70 -20 -3 -21 -1 -10 12 11 14 11 15 -7 5 -11
-6 -35 -22 -54 -36 -46 -34 -77 -34 -36 -1 18 15 24 25 15 25 -8 0 8 20 35 45
28 25 43 42 34 39 -31 -10 -30 15 0 31 17 8 32 11 35 6 4 -5 24 0 45 12 30 16
37 25 29 34 -13 16 -72 17 -100 2 -15 -8 -19 -8 -14 0 7 11 -13 15 -63 13 -13
-1 -38 -17 -57 -36 -30 -31 -38 -34 -76 -31 -58 6 -97 -27 -43 -37 15 -3 22
-1 18 5 -4 6 0 8 10 4 9 -3 17 -1 19 5 2 5 18 11 35 13 17 1 36 5 42 9 6 4 11
1 11 -8 0 -14 25 -22 53 -17 10 2 -8 -33 -25 -46 -24 -20 -72 -24 -100 -9 -18
9 -28 11 -28 4 0 -7 -5 -6 -15 2 -8 7 -22 10 -30 6 -18 -7 -130 -20 -160 -18
-131 5 -337 2 -364 -7 -24 -7 -39 -7 -55 1 -24 13 -46 34 -46 43 0 13 -45 44
-72 50 -14 3 -29 13 -32 20 -3 8 -12 12 -20 9 -9 -4 -20 5 -31 25 -15 30 -23
34 -97 46 -20 3 -39 13 -42 22 -4 9 -9 13 -13 10 -3 -4 -12 -2 -19 4 -9 7 -16
6 -26 -4 -11 -12 -16 -12 -36 1 -13 9 -28 25 -32 37 -7 18 -14 21 -36 17 -16
-3 -37 -13 -47 -22 -11 -11 -27 -16 -39 -12 -15 3 -19 1 -14 -7 6 -8 -3 -10
-32 -5 -38 6 -79 -7 -93 -29 -4 -5 -19 -9 -33 -9 -15 0 -29 -5 -32 -9 -3 -5
-9 -7 -14 -4 -4 3 -15 -14 -23 -37 -8 -24 -20 -42 -26 -41 -6 2 -11 -4 -11
-12 0 -9 -11 -20 -24 -25 -18 -7 -24 -15 -22 -35 3 -24 2 -25 -15 -9 -20 18
-39 12 -40 -14 0 -11 -3 -12 -6 -4 -2 6 -9 12 -14 12 -6 0 -7 -6 -3 -12 6 -10
4 -10 -8 0 -16 13 -44 12 -67 -2 -7 -5 -30 -11 -50 -13 -20 -3 -37 -9 -39 -14
-2 -5 -13 -4 -24 2 -15 8 -19 8 -14 0 9 -14 0 -14 -44 -1 -19 6 -51 13 -70 16
-19 2 -50 9 -70 14 -19 5 -38 10 -43 10 -4 0 -23 7 -43 15 -45 19 -45 19 -37
-2 4 -9 2 -14 -3 -11 -5 2 -25 12 -44 21 -20 9 -63 32 -95 52 -33 19 -65 33
-73 30 -7 -2 -11 -1 -8 3 6 10 -39 38 -93 57 -25 8 -43 10 -46 4 -4 -5 -12 -6
-18 -3 -7 4 -9 4 -5 0 4 -5 -1 -16 -10 -27 -17 -17 -20 -17 -62 -2 -25 8 -65
15 -89 14 -48 -1 -70 16 -71 57 0 13 -4 20 -10 17 -6 -3 -19 -3 -31 0 -16 5
-18 10 -8 21 6 7 15 11 20 8 5 -3 15 -2 21 3 19 11 68 12 68 1 0 -5 7 -3 15 6
11 11 23 12 44 6 16 -4 32 -5 35 -2 10 9 46 10 40 0 -10 -16 9 -8 22 10 13 16
14 16 7 -2 -4 -13 -3 -17 5 -12 7 4 12 2 12 -5 0 -7 8 -5 20 6 11 10 23 15 27
11 4 -4 1 -11 -6 -15 -8 -5 -9 -11 -3 -15 6 -3 15 6 20 21 l10 28 1 -30 c1
-22 4 -26 10 -16 8 12 12 13 26 1 14 -11 16 -11 13 1 -2 9 5 13 20 12 13 -2
22 3 22 11 0 8 9 18 20 21 11 4 18 10 15 15 -3 4 4 10 15 13 11 3 23 1 26 -4
3 -5 14 -4 26 2 18 10 19 8 13 -13 -3 -12 -3 -18 2 -12 15 19 43 25 43 8 0 -8
4 -13 9 -9 5 3 12 2 14 -2 7 -12 77 -9 75 2 -2 6 -7 9 -11 7 -5 -1 -6 2 -2 8
4 6 16 8 27 4 15 -4 18 -3 13 6 -6 9 -4 11 6 5 18 -12 49 -14 43 -3 -3 4 -12
8 -20 8 -15 0 -35 39 -27 53 3 4 11 3 19 -4 11 -9 18 -8 31 2 15 12 16 12 10
-4 -4 -11 -3 -16 3 -12 5 3 20 1 32 -5 22 -11 22 -10 4 4 -19 16 -19 16 2 16
12 0 22 4 22 8 0 9 42 8 58 -2 7 -4 12 -3 12 3 0 6 7 8 15 5 8 -4 12 -11 9
-16 -4 -6 5 -2 19 7 15 9 32 13 38 9 7 -4 9 -3 6 3 -4 7 5 10 26 9 21 -2 31
-7 29 -16 -3 -11 0 -11 13 0 9 7 14 19 11 27 -5 11 -2 11 17 1 12 -7 25 -11
30 -10z m1408 5 c-11 -4 -11 -7 0 -13 8 -5 18 -2 25 8 14 19 27 12 19 -9 -6
-17 -55 -24 -55 -9 0 17 -18 11 -23 -7 -4 -14 -5 -13 -6 4 -1 13 6 23 17 26
24 7 40 6 23 0z m79 -3 c0 -5 -4 -10 -10 -10 -5 0 -10 5 -10 10 0 6 5 10 10
10 6 0 10 -4 10 -10z m-149 -32 c-23 -22 -71 -32 -71 -15 0 4 9 7 19 7 11 0
23 5 27 12 4 7 3 8 -4 4 -7 -4 -12 -2 -12 3 0 6 15 11 32 11 l33 0 -24 -22z
m-1162 9 c-2 -2 -11 -8 -20 -15 -12 -9 -16 -9 -16 1 0 7 9 14 20 14 11 1 18 1
16 0z m699 -22 c-3 -3 -9 2 -12 12 -6 14 -5 15 5 6 7 -7 10 -15 7 -18z m-748
5 c0 -5 -2 -10 -4 -10 -3 0 -8 5 -11 10 -3 6 -1 10 4 10 6 0 11 -4 11 -10z
m-543 -23 c-6 -19 -23 -18 -23 2 0 11 5 17 14 14 7 -3 11 -10 9 -16z m463 19
c0 -3 -4 -8 -10 -11 -5 -3 -10 -1 -10 4 0 6 5 11 10 11 6 0 10 -2 10 -4z
m1223 -63 c-3 -7 -9 -10 -14 -7 -14 8 -11 21 5 21 8 0 12 -6 9 -14z m-2011 -8
c12 -3 26 -10 32 -16 8 -9 8 -10 -2 -5 -7 4 -20 2 -29 -6 -12 -9 -15 -9 -9 0
4 7 2 12 -7 12 -8 0 -18 7 -21 16 -3 8 -2 12 4 9 5 -3 20 -8 32 -10z m55 9
c-3 -3 -12 -4 -19 -1 -8 3 -5 6 6 6 11 1 17 -2 13 -5z m2683 -4 c0 -5 -5 -10
-11 -10 -5 0 -7 5 -4 10 3 6 8 10 11 10 2 0 4 -4 4 -10z m-53 -16 c-3 -3 -12
-4 -19 -1 -8 3 -5 6 6 6 11 1 17 -2 13 -5z m74 -17 c-10 -9 -11 -8 -5 6 3 10
9 15 12 12 3 -3 0 -11 -7 -18z m564 -69 c-9 -44 -13 -47 -65 -50 -36 -2 -45 0
-48 15 -2 10 0 17 5 16 4 -1 13 0 18 1 6 1 24 1 41 0 31 -1 51 20 38 41 -3 5
0 9 6 9 8 0 9 -11 5 -32z m-275 -18 c0 -16 -7 -30 -15 -34 -13 -5 -14 -2 -4
15 6 11 8 23 5 27 -3 3 -6 0 -6 -6 0 -7 -4 -12 -10 -12 -20 0 -10 36 10 37 16
1 20 -4 20 -27z m-1799 -25 c7 15 8 12 4 -10 -4 -20 0 -37 11 -50 13 -16 15
-17 10 -3 -7 22 12 34 27 18 9 -10 9 -11 -3 -5 -9 5 -7 -1 5 -15 11 -13 14
-20 8 -16 -7 4 -13 2 -13 -4 0 -6 -4 -8 -10 -5 -5 3 -10 -1 -10 -10 0 -9 -5
-13 -10 -10 -7 4 -9 -13 -5 -52 l5 -58 -19 28 c-10 16 -16 37 -14 48 3 11 0
26 -7 34 -7 8 -10 15 -7 15 3 0 2 14 -3 30 -6 21 -5 30 3 30 7 0 4 5 -5 11
-10 5 -18 15 -18 22 0 7 4 6 10 -3 7 -12 10 -11 17 5 7 20 7 20 12 0 l4 -20 8
20z m168 -19 c-10 -5 -19 -15 -19 -22 0 -15 -34 -36 -44 -27 -9 10 -7 43 3 43
5 0 12 -6 14 -12 3 -8 6 -5 6 5 1 10 6 15 12 12 6 -4 13 2 16 13 4 17 8 18 18
9 11 -10 10 -14 -6 -21z m-1615 -35 c9 -8 16 -11 16 -7 0 3 16 0 35 -8 19 -8
35 -13 35 -12 0 2 17 -2 37 -9 23 -8 47 -10 65 -5 19 6 30 5 35 -4 5 -6 21
-22 37 -34 37 -28 16 -38 -39 -19 -41 15 -69 12 -59 -4 7 -13 -39 -2 -94 22
-23 10 -40 14 -37 9 10 -16 -19 -11 -41 6 -18 15 -18 15 4 9 23 -7 24 -7 5 12
-10 11 -20 18 -22 17 -3 -3 -41 35 -41 40 0 8 52 -4 64 -13z m1743 -17 c0 -8
-6 -14 -14 -14 -7 0 -13 -3 -13 -8 0 -9 -40 -35 -46 -29 -5 4 20 68 31 79 10
10 42 -12 42 -28z m-543 -25 c-3 -5 1 -9 8 -10 9 0 10 -2 1 -5 -7 -3 -9 -12
-6 -20 4 -10 0 -12 -11 -8 -17 6 -18 10 -20 62 l-1 33 17 -21 c10 -12 15 -26
12 -31z m66 -3 c0 -6 -7 -2 -15 8 -8 11 -15 25 -15 30 0 6 7 2 15 -8 8 -11 15
-25 15 -30z m393 -16 c-3 -11 -7 -20 -9 -20 -2 0 -4 9 -4 20 0 11 4 20 9 20 5
0 7 -9 4 -20z m-548 0 c3 -5 1 -10 -4 -10 -6 0 -11 5 -11 10 0 6 2 10 4 10 3
0 8 -4 11 -10z m499 -35 c-4 -8 -10 -12 -15 -9 -14 8 -10 24 6 24 9 0 12 -6 9
-15z m-293 -4 c5 9 11 6 20 -14 6 -14 16 -24 22 -20 6 4 7 1 2 -7 -6 -10 -12
-8 -26 9 -10 12 -21 21 -26 21 -4 -1 -8 3 -9 10 -2 7 -1 6 3 -1 4 -8 8 -7 14
2z m173 -12 c-8 -14 -24 -10 -24 6 0 9 6 12 15 9 8 -4 12 -10 9 -15z m351 -22
c-1 -17 -9 -23 -33 -25 -23 -2 -32 1 -32 12 0 32 11 42 39 38 21 -3 27 -9 26
-25z m-1955 -88 c0 -6 -4 -7 -10 -4 -5 3 -10 11 -10 16 0 6 5 7 10 4 6 -3 10
-11 10 -16z m373 7 c17 -9 27 -11 27 -4 0 7 6 6 15 -2 10 -8 15 -9 15 -1 0 14
47 -5 78 -33 34 -30 7 -38 -56 -14 -73 27 -109 29 -115 6 -3 -12 -11 -16 -21
-12 -19 7 -21 -7 -3 -25 9 -11 7 -10 -13 0 -13 8 -30 21 -37 29 -9 12 -14 12
-24 3 -10 -10 -9 -15 1 -27 11 -14 7 -15 -31 -10 -55 7 -76 24 -31 24 18 0 45
9 61 20 15 12 37 22 48 23 14 1 19 6 15 16 -3 9 -1 12 6 7 7 -4 12 -2 12 3 0
15 20 14 53 -3z m1767 -45 c0 -9 -52 -31 -72 -31 -15 0 3 21 26 30 28 12 46
12 46 1z m-1159 -18 c13 -16 12 -17 -3 -4 -10 7 -18 15 -18 17 0 8 8 3 21 -13z
m629 2 c7 -9 8 -15 2 -15 -5 0 -12 7 -16 15 -3 8 -4 15 -2 15 2 0 9 -7 16 -15z
m-1250 -45 c8 -5 11 -10 5 -10 -5 0 -17 5 -25 10 -8 5 -10 10 -5 10 6 0 17 -5
25 -10z m85 -30 c3 -6 -1 -7 -9 -4 -18 7 -21 14 -7 14 6 0 13 -4 16 -10z m49
-39 c4 -5 -3 -7 -14 -4 -23 6 -26 13 -6 13 8 0 17 -4 20 -9z m86 -1 c13 -9 13
-10 0 -9 -8 0 -24 4 -35 9 l-20 9 20 0 c11 0 27 -4 35 -9z m1510 1 c23 -2 23
-3 5 -10 -27 -11 -115 -12 -115 -1 0 15 32 18 110 11z m-1015 -51 c3 -5 2 -10
-4 -10 -5 0 -13 5 -16 10 -3 6 -2 10 4 10 5 0 13 -4 16 -10z m1095 -94 c0 -2
-7 -7 -16 -10 -8 -3 -12 -2 -9 4 6 10 25 14 25 6z m-951 -79 c8 -11 5 -13 -19
-9 -17 2 -33 8 -36 13 -9 14 42 10 55 -4z m127 -9 c-5 8 0 12 13 12 12 0 21
-5 21 -11 0 -5 6 -7 13 -3 6 4 9 4 5 -1 -4 -4 -3 -14 3 -21 6 -7 8 -18 5 -23
-7 -11 -86 37 -86 52 0 5 8 3 17 -4 11 -10 14 -10 9 -1z m-1368 -15 c6 -19
-69 -17 -104 2 -28 15 -28 15 35 13 41 -2 66 -8 69 -15z m619 -9 c-3 -3 -12
-4 -19 -1 -8 3 -5 6 6 6 11 1 17 -2 13 -5z m91 -60 c2 -15 -4 -23 -20 -28 -38
-10 -48 -7 -48 14 0 11 7 20 16 20 8 0 12 5 8 11 -4 7 2 9 17 7 15 -2 25 -11
27 -24z m-165 -61 c-13 -2 -33 -2 -45 0 -13 2 -3 4 22 4 25 0 35 -2 23 -4z
m-408 -52 c-6 -5 -30 -12 -54 -16 -23 -3 -54 -10 -68 -16 -13 -5 -36 -9 -51
-9 -26 1 -26 1 8 17 64 29 188 47 165 24z m2498 -8 c-7 -2 -19 -2 -25 0 -7 3
-2 5 12 5 14 0 19 -2 13 -5z m-2735 -10 c-16 -2 -40 -2 -55 0 -16 2 -3 4 27 4
30 0 43 -2 28 -4z m3182 -13 c0 -17 -28 -18 -33 -1 -3 14 0 17 14 14 11 -3 19
-9 19 -13z m100 10 c0 -11 -14 -11 -50 0 -22 7 -21 8 13 9 20 1 37 -3 37 -9z
m-1090 -10 c0 -5 -8 -10 -17 -10 -15 0 -16 2 -3 10 19 12 20 12 20 0z m-1347
-17 c-7 -2 -19 -2 -25 0 -7 3 -2 5 12 5 14 0 19 -2 13 -5z m2222 -33 c-3 -5
-12 -10 -18 -10 -7 0 -6 4 3 10 19 12 23 12 15 0z m-2675 -10 c-20 -13 -60
-13 -60 0 0 6 17 10 38 10 27 0 33 -3 22 -10z m1247 -70 c3 -11 9 -20 14 -20
5 0 9 -4 9 -8 0 -5 -12 -9 -28 -10 -19 0 -30 6 -38 23 -10 20 -9 25 5 28 30 8
33 7 38 -13z m-173 -41 c29 -8 36 -13 25 -20 -19 -12 -86 -11 -94 1 -4 6 -11
8 -16 5 -5 -4 -9 -2 -9 4 0 9 18 17 45 20 6 0 28 -4 49 -10z m116 1 c0 -5 -10
-10 -22 -9 -22 0 -22 1 -3 9 11 5 21 9 23 9 1 1 2 -3 2 -9z m-225 -19 c3 -5 2
-12 -3 -15 -12 -7 -52 4 -52 15 0 12 47 12 55 0z m-232 -18 c-7 -2 -19 -2 -25
0 -7 3 -2 5 12 5 14 0 19 -2 13 -5z m1167 -9 c0 -8 -5 -12 -10 -9 -6 4 -8 11
-5 16 9 14 15 11 15 -7z m-391 -31 c25 6 28 -11 4 -28 -13 -9 -16 -28 -16 -84
0 -40 3 -74 6 -77 2 -3 14 -6 26 -7 11 -1 21 -4 21 -8 0 -8 -32 -35 -37 -31
-1 1 -10 2 -19 2 -14 0 -15 -9 -11 -57 l5 -58 -10 53 c-9 44 -8 55 5 70 11 12
13 22 7 32 -5 8 -10 50 -10 93 0 42 -4 77 -9 77 -5 0 -7 9 -4 21 4 14 8 17 13
8 5 -6 17 -9 29 -6z m381 -74 c0 -5 3 -8 8 -5 9 6 36 -15 40 -32 4 -20 -16
-13 -23 8 -4 11 -10 18 -15 15 -4 -3 -13 2 -20 10 -9 10 -9 15 -1 15 6 0 11
-5 11 -11z m-1802 -114 c-3 -3 -32 -12 -64 -20 -95 -24 -98 -25 -88 -15 5 5
36 16 69 24 65 15 91 19 83 11z m1676 -31 c3 -8 2 -12 -4 -9 -6 3 -10 10 -10
16 0 14 7 11 14 -7z m-879 -4 c-3 -5 -14 -10 -23 -10 -15 0 -15 2 -2 10 20 13
33 13 25 0z m734 -100 l-1 -35 -8 40 c-5 22 -13 53 -19 68 -17 45 -11 46 10 2
10 -22 18 -56 18 -75z m-1802 74 c-3 -3 -12 -4 -19 -1 -8 3 -5 6 6 6 11 1 17
-2 13 -5z m2198 -38 c0 -20 -3 -23 -16 -15 -9 4 -19 18 -22 29 -5 18 -3 19 11
8 14 -11 15 -10 8 7 -6 16 -5 17 5 8 7 -7 13 -23 14 -37z m-1646 -5 c-8 -12
-19 -16 -33 -13 -19 5 -18 7 9 18 17 7 31 13 33 14 1 0 -3 -8 -9 -19z m1148
-33 c-3 -8 -6 -5 -6 6 -1 11 2 17 5 13 3 -3 4 -12 1 -19z m80 -27 c0 -11 -4
-19 -7 -19 -12 2 -70 -25 -70 -32 0 -4 -9 -10 -21 -13 -18 -5 -20 -2 -14 21 7
29 25 54 25 35 0 -13 56 1 75 18 13 12 14 12 12 -10z m-1677 -31 c0 -5 -12
-12 -27 -16 -16 -3 -81 -22 -147 -41 -130 -37 -196 -41 -76 -3 56 17 207 60
248 69 1 1 2 -3 2 -9z m948 -32 c-22 -16 -86 -32 -71 -17 4 4 24 19 43 32 39
26 65 13 28 -15z m-133 6 c-10 -7 -22 -11 -28 -7 -6 3 -3 11 8 19 10 7 22 11
28 7 6 -3 3 -11 -8 -19z m2581 -20 c13 -16 49 -19 39 -4 -3 5 0 7 9 4 12 -5
13 -9 3 -19 -6 -7 -18 -10 -24 -8 -7 3 -13 -2 -13 -12 0 -9 -4 -14 -8 -11 -4
2 -8 -3 -8 -13 0 -13 6 -17 19 -13 10 2 16 10 13 17 -6 16 27 26 45 14 11 -7
9 -9 -6 -10 -17 -1 -17 -2 -2 -6 9 -2 15 -8 12 -13 -3 -5 -12 -7 -20 -4 -8 3
-20 -4 -27 -15 -7 -12 -16 -21 -21 -21 -4 0 -5 5 -2 10 3 6 1 10 -4 10 -6 0
-11 -16 -11 -35 0 -31 3 -35 25 -33 14 1 25 6 25 11 0 5 -10 6 -22 2 -20 -5
-21 -4 -5 5 9 6 17 17 17 25 0 16 18 30 27 21 3 -3 0 -12 -7 -21 -8 -10 -9
-15 -1 -15 6 0 13 11 17 24 4 16 11 23 20 19 17 -6 19 -24 2 -20 -8 1 -13 -8
-13 -20 0 -13 -4 -22 -8 -22 -5 0 -15 -8 -23 -18 -8 -12 -13 -13 -14 -5 0 18
-20 4 -20 -14 0 -9 5 -12 12 -8 7 4 8 3 4 -4 -5 -9 -12 -8 -26 1 -11 6 -21 15
-21 19 -2 10 -6 25 -9 36 -1 4 -2 10 -1 15 2 13 -17 7 -23 -8 -3 -9 0 -15 9
-15 8 0 14 -3 14 -7 -4 -24 2 -53 10 -48 5 3 12 1 15 -4 10 -16 -11 -22 -24
-6 -6 7 -18 11 -26 8 -12 -4 -12 -8 3 -18 17 -13 17 -14 1 -20 -10 -4 -18 -14
-18 -22 0 -12 -2 -12 -16 1 -8 9 -21 16 -27 16 -7 0 -3 8 8 17 16 12 16 14 3
10 -22 -8 -33 10 -29 46 1 15 -2 34 -8 40 -5 7 -8 25 -7 40 2 15 -3 32 -10 38
-10 8 -8 16 13 40 15 16 32 29 40 29 7 0 13 5 13 10 0 15 72 1 86 -16z m154 6
c0 -5 -10 -15 -22 -21 l-23 -12 20 21 c23 24 25 25 25 12z m-30 -56 c0 -2 -11
2 -25 8 -14 6 -25 15 -25 20 0 5 11 1 25 -8 14 -9 25 -18 25 -20z m12 -14
c-13 -11 -18 -21 -12 -25 5 -3 10 -11 10 -16 0 -6 -11 2 -25 17 -31 34 -31 38
-1 30 14 -3 28 -2 31 4 3 5 9 10 13 10 4 -1 -3 -9 -16 -20z m-2928 -35 c-7
-17 -43 -40 -51 -32 -6 7 34 47 47 47 5 0 7 -7 4 -15z m386 -10 c0 -2 -6 -5
-13 -8 -8 -3 -14 1 -14 8 0 7 6 11 14 8 7 -3 13 -6 13 -8z m-690 -25 c0 -5 -5
-10 -11 -10 -5 0 -7 5 -4 10 3 6 8 10 11 10 2 0 4 -4 4 -10z m178 -7 c-6 -7
-25 -13 -42 -13 -29 1 -30 1 -12 15 24 19 70 17 54 -2z m2440 5 c18 -18 14
-28 -12 -28 -37 0 -42 34 -5 39 3 1 10 -4 17 -11z m-2905 -14 c-18 -7 -43 -29
-56 -48 -24 -36 -36 -36 -56 1 -10 19 -8 24 10 34 16 8 20 8 14 0 -10 -18 35
-9 65 12 13 9 31 17 40 16 8 0 1 -7 -17 -15z m3462 -34 c-3 -5 -12 -10 -18
-10 -7 0 -6 4 3 10 19 12 23 12 15 0z m-3605 -10 c-8 -5 -19 -10 -25 -10 -5 0
-3 5 5 10 8 5 20 10 25 10 6 0 3 -5 -5 -10z m2236 -37 c-7 -7 -26 7 -26 19 0
6 6 6 15 -2 9 -7 13 -15 11 -17z m-40 2 c18 -14 17 -14 -13 -15 -31 0 -49 11
-36 24 10 10 28 7 49 -9z m1324 -67 c0 -5 5 -6 10 -3 6 3 10 -4 10 -17 -1 -20
-2 -21 -11 -5 -12 21 -33 23 -26 3 4 -10 1 -13 -8 -9 -8 3 -18 -2 -21 -11 -3
-9 -13 -16 -21 -16 -8 0 -12 -4 -9 -9 3 -4 -6 -6 -19 -3 -19 3 -25 0 -26 -14
0 -16 -2 -15 -9 4 -5 12 -12 22 -16 22 -3 0 -4 -6 -1 -14 7 -17 -16 -28 -38
-20 -8 4 -15 1 -15 -5 0 -6 -8 -11 -17 -11 -13 0 -14 -3 -5 -12 9 -9 15 -9 24
0 7 7 17 8 29 1 15 -7 17 -6 13 6 -5 11 -2 13 10 9 9 -3 13 -10 10 -15 -3 -5
2 -6 10 -3 9 3 16 16 17 28 0 15 2 17 7 6 5 -10 23 -15 56 -16 44 0 47 1 30
14 -18 14 -18 14 1 7 11 -3 28 -8 39 -11 24 -4 34 -14 15 -14 -10 0 -11 -2 -2
-8 8 -5 9 -13 3 -22 -8 -13 -11 -12 -23 4 -11 16 -17 17 -33 7 -18 -11 -17
-12 4 -6 13 4 22 2 22 -5 0 -6 -13 -13 -29 -16 -16 -4 -39 -15 -50 -26 -12
-10 -21 -14 -21 -8 0 6 -5 8 -10 5 -6 -4 -7 -12 -3 -18 4 -8 1 -7 -9 1 -14 11
-17 10 -23 -7 -5 -16 -11 -18 -35 -11 -23 7 -32 5 -39 -8 -5 -9 -13 -14 -16
-10 -4 4 -14 1 -21 -7 -19 -18 -18 -31 1 -15 10 9 15 9 15 1 0 -12 -12 -15
-45 -11 -15 2 -17 -1 -8 -12 9 -11 8 -14 -7 -14 -10 0 -17 3 -14 7 2 4 -3 9
-11 13 -13 5 -20 -5 -16 -26 0 -5 -10 -8 -24 -8 -14 0 -25 -6 -25 -13 0 -12
-18 -16 -82 -19 -15 0 -27 -4 -26 -7 0 -3 0 -15 -1 -25 -1 -19 -1 -19 -15 -1
-13 18 -15 18 -40 1 -16 -10 -35 -14 -46 -11 -15 5 -18 3 -14 -9 8 -22 -13
-20 -25 2 -9 16 -10 15 -18 -5 -4 -12 -11 -22 -15 -22 -5 -1 -15 -1 -24 -1 -8
0 -13 -4 -9 -9 3 -5 1 -12 -5 -16 -5 -3 -10 1 -10 10 0 9 -5 13 -10 10 -8 -5
-7 -11 1 -21 6 -7 15 -11 20 -8 5 3 9 0 9 -7 0 -7 8 -5 22 7 12 10 18 13 14 7
-4 -7 -2 -13 3 -13 6 0 11 6 12 13 0 8 2 8 5 1 6 -13 44 -7 44 7 0 5 7 9 15 9
8 0 15 6 15 13 1 6 7 1 16 -13 l15 -25 -7 24 c-5 19 -3 23 10 18 9 -4 16 -3
16 2 0 4 7 8 15 8 9 0 11 -4 6 -11 -6 -8 1 -11 24 -11 20 0 31 4 28 11 -2 7
11 10 38 10 22 -1 43 2 45 6 2 3 14 4 26 0 15 -4 19 -2 13 7 -6 10 -3 11 13 2
26 -14 35 -14 27 -1 -3 6 -1 10 4 10 6 0 11 -4 11 -9 0 -5 3 -16 6 -25 3 -9 1
-16 -6 -16 -6 0 -8 6 -4 13 6 9 4 9 -6 0 -12 -11 -11 -16 6 -29 10 -8 13 -13
7 -9 -7 3 -13 0 -13 -7 0 -10 -2 -10 -9 1 -6 9 -11 10 -15 2 -4 -6 -4 -16 0
-23 5 -7 3 -8 -6 -3 -10 6 -12 4 -7 -8 3 -9 2 -19 -3 -22 -6 -4 -10 1 -10 10
0 11 -5 15 -16 11 -9 -4 -13 -2 -8 5 4 7 -1 7 -16 -1 -13 -7 -19 -17 -16 -26
3 -9 1 -12 -4 -9 -13 8 -13 -1 1 -28 10 -21 10 -21 -5 -3 -9 11 -14 27 -11 36
3 10 0 17 -8 17 -9 0 -12 -7 -9 -19 3 -13 -1 -18 -14 -18 -16 0 -17 -2 -4 -11
12 -8 9 -9 -12 -5 -22 5 -28 3 -28 -10 0 -11 -6 -15 -19 -11 -15 4 -18 1 -13
-12 5 -14 4 -14 -11 -2 -10 8 -17 9 -17 3 0 -6 -16 -14 -35 -18 -19 -3 -33
-10 -30 -14 3 -5 -17 -7 -45 -5 -32 2 -50 -1 -50 -9 0 -6 -5 -4 -10 4 -8 12
-10 11 -10 -6 0 -12 -7 -24 -15 -28 -8 -3 -15 -2 -15 3 0 4 -13 6 -30 3 -16
-2 -27 -9 -24 -14 4 -6 -6 -8 -25 -5 -18 3 -31 1 -31 -5 0 -6 -8 -7 -17 -4
-10 4 -14 4 -11 0 8 -7 -34 -44 -49 -44 -4 0 -1 5 7 11 12 9 11 10 -7 6 -14
-3 -23 0 -23 6 0 7 -5 5 -10 -3 -9 -13 -10 -13 -10 0 0 12 -2 12 -9 2 -4 -7
-18 -14 -29 -15 -12 -1 -22 -4 -22 -8 0 -4 -9 -5 -21 -2 -15 4 -22 0 -26 -15
-5 -22 -41 -27 -55 -7 -5 6 -8 5 -8 -3 0 -8 -9 -12 -22 -10 -13 2 -23 -2 -23
-9 0 -7 -4 -12 -10 -10 -5 1 -9 5 -8 10 2 4 -8 7 -22 7 -14 0 -25 -4 -25 -10
0 -5 6 -10 13 -10 8 0 7 -4 -3 -10 -12 -8 -12 -10 -1 -10 8 0 11 -3 8 -6 -4
-4 -13 -1 -22 6 -8 7 -15 9 -15 4 0 -5 -5 -2 -10 6 -7 12 -10 12 -10 1 0 -8
-6 -11 -17 -7 -15 5 -15 4 1 -9 23 -17 14 -20 -15 -4 -15 7 -27 6 -50 -5 -16
-8 -27 -11 -24 -6 13 22 -32 14 -53 -9 -13 -14 -21 -21 -19 -16 3 6 -1 16 -9
23 -9 8 -14 9 -14 2 0 -6 -5 -8 -12 -4 -7 4 -8 3 -4 -5 4 -6 13 -8 19 -5 7 4
8 3 4 -2 -11 -12 -30 -12 -39 0 -4 6 -12 5 -21 -2 -12 -10 -18 -10 -29 1 -12
12 -17 12 -33 1 -10 -7 -21 -11 -25 -9 -4 3 -7 -3 -6 -13 1 -12 -8 -18 -26
-20 -16 -2 -28 1 -28 7 0 14 -39 9 -44 -6 -3 -7 -13 -13 -23 -13 -15 0 -16 2
-3 10 12 8 11 10 -7 10 -16 0 -21 -4 -17 -15 4 -8 13 -15 22 -15 12 0 13 -3 4
-12 -9 -9 -15 -8 -25 6 -11 16 -17 17 -36 6 -13 -6 -25 -9 -29 -6 -3 4 -12 -6
-19 -21 -11 -22 -12 -23 -9 -6 3 20 1 21 -15 12 -14 -7 -19 -6 -20 3 0 10 -2
10 -6 0 -2 -6 -10 -9 -16 -5 -6 4 -8 0 -4 -10 3 -10 2 -17 -2 -17 -5 0 -12 8
-16 17 -6 17 -7 17 -21 -1 -14 -20 -14 -20 -15 0 0 10 -3 13 -6 7 -2 -7 -16
-13 -29 -13 -14 0 -22 -4 -19 -10 4 -7 -3 -7 -20 0 -20 8 -27 7 -32 -6 -5 -13
-7 -13 -14 -2 -7 10 -9 10 -9 1 0 -7 -9 -13 -20 -13 -11 0 -20 5 -20 10 0 6
-5 10 -11 10 -5 0 -7 -5 -3 -12 5 -7 2 -9 -9 -5 -12 4 -14 2 -10 -10 5 -13 3
-13 -15 -4 -17 9 -21 8 -25 -7 -3 -11 -5 -9 -6 8 -1 15 -4 20 -9 14 -4 -6 -22
-15 -39 -19 -28 -5 -33 -4 -34 12 -1 13 -2 14 -5 3 -6 -19 -54 -43 -54 -27 0
7 -5 6 -11 -3 -9 -12 -10 -10 -6 8 8 36 -21 40 -49 6 -13 -16 -23 -22 -22 -14
2 10 -7 16 -26 18 -26 3 -28 2 -17 -12 12 -14 11 -16 -4 -10 -14 6 -16 4 -10
-6 5 -8 4 -11 -3 -6 -6 4 -9 13 -6 21 4 10 -1 12 -18 9 -22 -5 -22 -5 -4 10
11 9 15 16 8 16 -18 0 -62 -22 -62 -32 0 -5 -6 -3 -13 3 -11 11 -10 16 6 32
11 11 22 15 26 9 7 -11 51 3 51 17 0 13 -28 22 -35 11 -8 -13 -55 -13 -55 -1
0 6 9 8 20 6 12 -2 20 2 20 10 0 9 7 12 17 9 15 -5 15 -3 -2 11 -20 17 -20 17
2 11 12 -4 32 -1 44 6 16 10 23 10 26 1 7 -20 34 -3 28 17 -3 10 -1 21 4 25 6
3 8 0 5 -9 -3 -8 2 -19 14 -25 14 -8 19 -7 19 4 0 8 -4 12 -9 9 -4 -3 -8 -1
-8 5 0 5 22 9 51 7 44 -2 53 1 57 17 4 15 7 16 14 5 7 -9 8 -5 4 12 l-5 25 20
-25 c12 -14 18 -20 15 -13 -4 6 3 14 14 18 34 11 16 30 -28 30 -33 1 -43 -3
-48 -18 -5 -16 -8 -17 -16 -6 -8 12 -10 12 -15 0 -4 -11 -7 -11 -13 0 -7 10
-16 10 -44 2 -20 -6 -36 -7 -36 -2 0 14 -17 11 -34 -7 -9 -8 -22 -14 -29 -11
-6 2 -19 1 -28 -4 -8 -4 -22 -4 -29 1 -10 6 -22 2 -39 -13 -13 -12 -21 -17
-18 -11 4 7 -4 11 -23 10 -17 -1 -30 -5 -30 -11 0 -5 -5 -3 -10 5 -8 12 -10
12 -10 1 0 -11 -3 -11 -15 -1 -12 10 -15 10 -16 -1 0 -11 -2 -11 -6 -1 -4 10
-10 9 -26 -5 -11 -10 -17 -12 -13 -6 4 7 3 13 -3 13 -5 0 -12 -6 -15 -12 -3
-9 -10 -7 -21 7 -17 20 -17 20 -11 -1 6 -19 3 -21 -21 -16 -19 4 -23 7 -10 10
25 5 21 19 -6 17 -12 -1 -26 3 -30 9 -5 6 -6 2 -3 -10 4 -14 2 -21 -8 -21 -9
0 -13 4 -10 9 3 4 -2 8 -10 8 -10 0 -13 6 -9 18 6 15 5 15 -10 3 -9 -7 -17
-10 -17 -5 0 4 -5 3 -12 -4 -18 -18 -31 -15 -24 5 6 16 6 16 -12 0 -26 -24
-31 -21 -30 16 1 17 3 26 5 20 3 -7 9 -13 15 -13 6 0 7 7 4 16 -5 14 -4 15 9
4 13 -11 14 -10 9 3 -4 12 2 18 23 22 15 4 35 9 43 12 8 3 21 7 29 9 8 1 24
14 36 28 12 14 25 23 28 19 4 -3 9 1 12 9 4 11 16 14 39 11 24 -3 38 2 59 21
16 15 32 26 37 26 5 0 7 7 4 15 -4 10 3 16 23 21 15 4 31 11 34 16 7 11 82 21
75 9 -3 -5 1 -12 10 -15 9 -3 12 -2 9 5 -11 17 16 39 42 34 18 -3 23 0 20 10
-3 7 1 16 9 19 25 10 36 7 29 -6 -4 -7 0 -5 8 5 8 9 21 17 29 17 8 0 23 6 33
14 11 8 26 11 34 8 9 -3 12 -1 7 7 -5 8 2 11 25 9 18 -1 34 3 36 9 3 7 11 9
20 6 11 -4 14 -2 9 5 -4 7 -4 12 1 13 4 1 21 2 38 4 16 1 31 7 33 13 1 5 12 8
23 5 10 -3 26 0 34 7 12 10 16 9 21 -4 3 -9 11 -16 16 -16 7 0 7 4 0 13 -7 8
-6 16 4 25 8 7 14 8 14 3 0 -7 9 -7 25 -1 14 5 48 12 76 14 28 3 57 10 63 15
11 9 57 21 131 35 11 2 39 7 62 11 31 5 50 17 70 41 20 26 32 33 47 28 12 -4
23 -10 26 -14 8 -10 70 -6 70 4 0 6 5 5 11 -1 9 -9 16 -7 28 8 17 21 71 33 71
16 0 -6 9 -2 19 7 11 10 39 20 63 23 24 3 46 11 50 17 5 8 8 7 8 -1 0 -9 7
-10 24 -3 13 5 43 12 67 15 24 4 48 9 52 12 5 3 26 7 46 9 129 10 174 15 262
29 55 8 103 14 107 14 27 -4 63 3 76 16 8 8 22 15 31 15 10 0 15 5 12 13 -4
10 4 13 28 12 19 0 32 3 29 6 -10 16 43 13 74 -3 30 -16 38 -17 110 -3 72 14
173 20 145 8 -7 -2 -13 -9 -13 -14 0 -4 7 -6 15 -3 8 4 15 14 15 23 0 13 2 14
9 1 6 -8 7 -18 4 -24 -3 -5 -1 -6 6 -2 6 4 8 12 5 18 -5 7 -2 8 7 2 24 -15 38
-13 32 4 -4 10 -2 13 5 8 7 -4 13 -17 13 -29 1 -14 4 -9 9 13 4 19 8 27 9 18
1 -21 14 -23 42 -7 11 6 18 17 15 24 -3 9 0 12 10 8 7 -3 14 -9 14 -15z m65
-26 c-11 -9 -15 -11 -8 -3 6 7 9 21 6 30 -5 13 -3 14 8 3 11 -10 10 -15 -6
-30z m-10 -50 c-3 -3 -11 0 -18 7 -9 10 -8 11 6 5 10 -3 15 -9 12 -12z m58
-37 c-15 -11 -53 -10 -53 2 0 3 9 3 20 0 11 -3 23 -1 26 4 3 5 -7 9 -23 10
l-28 1 25 7 c33 10 57 -7 33 -24z m-1826 -87 c-3 -7 -5 -2 -5 12 0 14 2 19 5
13 2 -7 2 -19 0 -25z m20 10 c-3 -8 -6 -5 -6 6 -1 11 2 17 5 13 3 -3 4 -12 1
-19z m1170 -200 c-3 -8 -6 -5 -6 6 -1 11 2 17 5 13 3 -3 4 -12 1 -19z m315
-16 c2 -9 -3 -23 -12 -30 -8 -8 -10 -11 -3 -8 6 4 14 3 17 -2 2 -4 -4 -8 -15
-9 -19 -2 -22 19 -5 46 6 9 5 12 -2 7 -6 -3 -13 -3 -16 2 -2 4 4 8 14 9 10 1
20 -6 22 -15z m43 9 c-3 -5 -1 -12 5 -16 15 -9 12 -25 -4 -19 -8 3 -13 13 -11
22 5 23 4 22 11 22 3 0 3 -4 -1 -9z m-2625 -245 c0 -3 -4 -8 -10 -11 -5 -3
-10 -1 -10 4 0 6 5 11 10 11 6 0 10 -2 10 -4z m-437 -48 c6 -22 5 -22 -8 -4
-17 22 -20 40 -6 32 5 -3 11 -16 14 -28z m2395 -17 c-7 -11 -16 -18 -20 -15
-4 3 -17 0 -28 -6 -16 -9 -18 -8 -14 5 6 15 17 19 41 16 6 -1 14 3 18 9 3 5 8
10 11 10 2 0 -1 -9 -8 -19z m-2088 -5 c0 -11 -19 -15 -25 -6 -3 5 1 10 9 10 9
0 16 -2 16 -4z m1761 -109 c-10 -9 -11 -8 -5 6 3 10 9 15 12 12 3 -3 0 -11 -7
-18z m-1926 2 c11 -16 1 -19 -13 -3 -7 8 -8 14 -3 14 5 0 13 -5 16 -11z m-31
-8 c3 -5 -1 -11 -9 -14 -9 -4 -12 -1 -8 9 6 16 10 17 17 5z m1661 -51 c3 -5 1
-10 -4 -10 -6 0 -11 5 -11 10 0 6 2 10 4 10 3 0 8 -4 11 -10z m875 -9 c0 -4
-7 -8 -15 -8 -16 0 -20 9 -9 20 8 8 24 -1 24 -12z m-1122 -19 c2 -7 -1 -12 -8
-12 -6 0 -9 4 -6 9 4 5 1 12 -4 14 -6 3 -5 4 2 3 6 -1 14 -8 16 -14z m1009 3
c0 -8 -4 -12 -8 -9 -4 2 -9 -1 -11 -6 -2 -6 -17 -13 -34 -16 -23 -4 -33 0 -38
12 -8 21 -1 29 16 18 21 -13 47 -12 59 3 14 16 16 16 16 -2z m-957 -5 c0 -5
-4 -10 -10 -10 -5 0 -10 5 -10 10 0 6 5 10 10 10 6 0 10 -4 10 -10z m-158 -32
c-7 -7 -10 -5 -7 8 5 29 6 30 12 16 3 -8 1 -18 -5 -24z m182 16 c3 -8 2 -12
-4 -9 -6 3 -10 10 -10 16 0 14 7 11 14 -7z m798 -11 c-6 -3 -9 -9 -6 -14 3 -6
11 -5 20 2 8 6 14 7 14 2 0 -5 -12 -15 -27 -22 -21 -10 -28 -9 -34 1 -5 7 -9
8 -9 3 0 -6 -9 -16 -21 -23 -12 -8 -18 -9 -14 -3 3 6 1 11 -4 11 -6 0 -11 -4
-11 -10 0 -5 -7 -10 -16 -10 -8 0 -12 -4 -9 -10 9 -14 -19 -12 -33 2 -9 9 -12
8 -12 -6 0 -16 -3 -15 -19 5 -18 22 -18 26 -4 42 19 20 49 23 57 5 5 -10 7
-10 12 0 3 6 12 12 20 12 9 0 13 3 11 8 -3 4 18 7 47 8 28 1 45 -1 38 -3z
m-212 -53 c14 -26 3 -45 -16 -29 -12 9 -13 9 -9 -3 5 -12 0 -14 -19 -11 -18 4
-28 0 -32 -11 -3 -9 -10 -13 -15 -10 -5 3 -9 1 -9 -5 0 -6 -7 -7 -17 -4 -12 5
-14 3 -8 -8 8 -12 6 -12 -8 0 -14 11 -18 11 -23 -2 -3 -9 -13 -13 -25 -10 -12
3 -18 11 -15 19 3 7 0 16 -6 20 -7 5 -3 10 11 16 12 4 20 12 17 17 -7 11 13 9
32 -2 8 -5 12 -2 12 8 0 12 5 13 18 7 16 -8 31 -8 80 -2 12 1 13 3 3 7 -11 5
-11 7 0 14 18 11 17 12 29 -11z m-1365 0 c-3 -5 -10 -10 -16 -10 -5 0 -9 5 -9
10 0 6 7 10 16 10 8 0 12 -4 9 -10z m-172 -13 c3 -8 -1 -14 -9 -14 -15 0 -18
9 -7 20 9 9 10 9 16 -6z m-94 -11 c9 -11 9 -16 -1 -22 -7 -4 -10 -4 -6 1 4 4
3 14 -3 22 -6 7 -9 13 -6 13 2 0 10 -6 16 -14z m1416 -37 c3 -4 1 -10 -6 -15
-8 -4 -10 -3 -5 4 4 7 2 12 -3 12 -6 0 -11 -13 -11 -30 0 -21 -4 -28 -14 -24
-7 3 -12 16 -10 30 1 13 -2 22 -6 19 -5 -3 -6 -13 -3 -22 4 -11 3 -14 -5 -9
-8 5 -10 1 -5 -10 4 -12 3 -15 -5 -10 -7 4 -12 2 -12 -4 0 -6 -4 -8 -10 -5 -5
3 -10 2 -10 -4 0 -10 -18 -10 -37 2 -6 4 -15 2 -19 -4 -5 -8 -3 -9 6 -4 9 5
11 4 6 -3 -5 -9 -13 -9 -28 -1 -13 7 -18 7 -14 1 3 -6 2 -13 -4 -17 -6 -4 -10
6 -10 24 0 24 3 29 17 24 11 -5 14 -3 8 6 -6 10 -2 11 16 6 22 -7 23 -7 9 11
-14 18 -14 19 7 1 15 -13 23 -15 28 -7 6 9 10 9 16 -1 6 -10 9 -7 9 11 0 17 3
21 9 12 6 -11 10 -10 19 0 11 14 55 18 67 7z m-242 -74 c4 -8 2 -17 -3 -20 -6
-4 -10 3 -10 14 0 25 6 27 13 6z m27 -20 c0 -5 -5 -3 -10 5 -5 8 -10 20 -10
25 0 6 5 3 10 -5 5 -8 10 -19 10 -25z m-67 1 c10 3 17 1 17 -6 0 -17 -43 -8
-47 10 -4 11 -2 12 5 2 5 -7 16 -10 25 -6z"/>
<path d="M3190 3740 c0 -6 5 -10 10 -10 6 0 10 -7 10 -15 0 -8 4 -15 9 -15 14
0 1 38 -15 44 -8 3 -14 1 -14 -4z"/>
<path d="M2668 3706 c-22 -16 -22 -22 -2 -30 9 -3 12 -2 9 5 -4 5 -1 16 5 24
15 18 11 19 -12 1z"/>
<path d="M3180 3645 c0 -14 2 -25 4 -25 2 0 6 11 8 25 3 14 1 25 -3 25 -5 0
-9 -11 -9 -25z"/>
<path d="M3041 3611 c-11 -7 -11 -9 0 -14 11 -4 10 -6 -1 -6 -9 -1 -20 3 -26
9 -6 6 -10 4 -10 -8 0 -10 7 -18 16 -17 33 3 60 17 60 31 0 16 -18 18 -39 5z"/>
<path d="M3081 3572 c-1 -7 -5 -11 -10 -7 -5 3 -12 1 -16 -4 -3 -6 3 -8 15 -6
11 2 24 -3 29 -13 9 -15 10 -14 8 5 0 12 -4 20 -8 17 -4 -2 -10 2 -12 8 -4 10
-6 10 -6 0z"/>
<path d="M2755 3550 c3 -5 8 -10 11 -10 2 0 4 5 4 10 0 6 -5 10 -11 10 -5 0
-7 -4 -4 -10z"/>
<path d="M2835 3530 c-3 -5 -2 -10 4 -10 5 0 13 5 16 10 3 6 2 10 -4 10 -5 0
-13 -4 -16 -10z"/>
<path d="M2198 3473 c7 -3 16 -2 19 1 4 3 -2 6 -13 5 -11 0 -14 -3 -6 -6z"/>
<path d="M2018 3443 c7 -3 16 -2 19 1 4 3 -2 6 -13 5 -11 0 -14 -3 -6 -6z"/>
<path d="M3328 3413 c7 -3 16 -2 19 1 4 3 -2 6 -13 5 -11 0 -14 -3 -6 -6z"/>
<path d="M1344 3229 c-4 -7 -3 -9 4 -5 5 3 13 0 15 -6 4 -9 6 -10 6 -1 1 17
-16 25 -25 12z"/>
<path d="M926 3212 c-8 -13 11 -35 23 -28 17 11 13 26 -6 19 -11 -4 -14 -3 -9
5 4 7 5 12 2 12 -3 0 -7 -4 -10 -8z"/>
<path d="M1120 3205 c0 -8 4 -15 10 -15 5 0 7 7 4 15 -4 8 -8 15 -10 15 -2 0
-4 -7 -4 -15z"/>
<path d="M625 3200 c-3 -5 -1 -10 4 -10 6 0 11 5 11 10 0 6 -2 10 -4 10 -3 0
-8 -4 -11 -10z"/>
<path d="M2575 3200 c-3 -5 -1 -10 4 -10 6 0 11 5 11 10 0 6 -2 10 -4 10 -3 0
-8 -4 -11 -10z"/>
<path d="M2761 3196 c-1 -12 -6 -16 -16 -12 -8 3 -15 1 -15 -4 0 -6 -6 -10
-14 -10 -8 0 -17 -4 -20 -9 -3 -5 6 -8 19 -8 14 0 28 3 31 8 3 5 11 9 17 9 7
0 6 -4 -3 -10 -11 -8 -2 -10 33 -8 53 2 71 12 29 16 -14 1 -29 8 -34 15 -4 6
-8 8 -9 2 0 -5 -4 -1 -9 10 -8 18 -9 19 -9 1z"/>
<path d="M860 3190 c0 -13 18 -22 24 -11 3 5 -1 11 -9 15 -8 3 -15 1 -15 -4z"/>
<path d="M1010 3190 c-13 -8 -13 -10 2 -10 9 0 20 5 23 10 8 13 -5 13 -25 0z"/>
<path d="M2680 3189 c0 -5 5 -7 10 -4 6 3 10 8 10 11 0 2 -4 4 -10 4 -5 0 -10
-5 -10 -11z"/>
<path d="M2925 3150 c-3 -6 1 -7 9 -4 18 7 21 14 7 14 -6 0 -13 -4 -16 -10z"/>
<path d="M3443 3143 c-3 -7 -9 -13 -15 -13 -5 0 -6 5 -2 11 4 8 -1 9 -17 4
-25 -8 -42 -26 -33 -34 3 -3 9 1 14 9 8 13 10 13 10 -2 0 -13 9 -16 48 -14 26
1 47 7 47 13 0 6 3 15 8 19 4 4 7 2 7 -4 0 -7 5 -12 10 -12 6 0 6 7 -1 18 -13
21 -69 24 -76 5z m42 -31 c-3 -3 -11 0 -18 7 -9 10 -8 11 6 5 10 -3 15 -9 12
-12z"/>
<path d="M2960 3140 c0 -5 5 -10 10 -10 6 0 10 5 10 10 0 6 -4 10 -10 10 -5 0
-10 -4 -10 -10z"/>
<path d="M245 3116 c-14 -10 -14 -14 -3 -23 16 -12 69 -23 63 -13 -7 11 63 18
73 8 5 -5 9 -2 9 7 0 13 -23 20 -49 16 -5 0 -8 3 -8 8 0 13 -66 11 -85 -3z"/>
<path d="M2347 2976 c-3 -8 1 -17 9 -20 9 -4 12 -2 8 5 -4 8 1 9 15 4 15 -5
21 -2 21 9 0 20 -46 22 -53 2z"/>
<path d="M2450 2976 c0 -2 7 -6 15 -10 8 -3 15 -1 15 4 0 6 -7 10 -15 10 -8 0
-15 -2 -15 -4z"/>
<path d="M3295 2973 c-11 -3 -26 -10 -34 -17 -12 -8 -13 -8 -7 2 10 16 -15 16
-38 -1 -13 -10 -15 -14 -5 -14 8 0 19 -2 24 -3 28 -7 62 2 73 20 7 11 11 19
10 19 -2 -1 -12 -4 -23 -6z"/>
<path d="M1022 2954 c10 -10 20 -15 24 -12 3 4 -5 12 -18 18 -22 12 -22 12 -6
-6z"/>
<path d="M3150 2935 c-7 -8 -8 -15 -2 -15 5 0 15 7 22 15 7 8 8 15 2 15 -5 0
-15 -7 -22 -15z"/>
<path d="M305 1280 c3 -5 8 -10 11 -10 2 0 4 5 4 10 0 6 -5 10 -11 10 -5 0 -7
-4 -4 -10z"/>
<path d="M3455 1040 c-3 -5 -1 -10 4 -10 6 0 11 5 11 10 0 6 -2 10 -4 10 -3 0
-8 -4 -11 -10z"/>
<path d="M3508 1033 c7 -3 16 -2 19 1 4 3 -2 6 -13 5 -11 0 -14 -3 -6 -6z"/>
<path d="M3023 734 c-3 -8 -12 -13 -19 -10 -8 3 -14 -1 -14 -8 0 -20 -30 -29
-36 -11 -9 22 -19 18 -33 -12 -11 -24 -14 -26 -22 -10 -14 24 -43 23 -30 -1
10 -19 81 -31 81 -14 0 5 12 10 26 10 14 0 31 5 37 12 9 10 9 11 0 6 -7 -4
-13 -3 -13 2 0 6 7 12 15 16 10 4 15 -1 15 -14 0 -24 6 -25 26 -5 17 17 11 35
-12 35 -8 0 -12 5 -9 10 3 6 4 10 0 10 -3 0 -8 -7 -12 -16z"/>
<path d="M3472 714 c-1 -13 0 -24 2 -24 7 0 14 40 7 44 -4 3 -8 -6 -9 -20z"/>
<path d="M2960 709 c0 -5 5 -7 10 -4 6 3 10 8 10 11 0 2 -4 4 -10 4 -5 0 -10
-5 -10 -11z"/>
<path d="M3375 710 c-16 -7 -17 -9 -3 -9 9 -1 20 4 23 9 7 11 7 11 -20 0z"/>
<path d="M2840 679 c0 -5 -4 -8 -8 -5 -4 2 -8 -4 -8 -15 0 -12 4 -15 10 -9 14
14 29 13 20 -2 -4 -7 -3 -8 4 -4 9 5 9 13 2 27 -12 21 -20 25 -20 8z"/>
<path d="M2676 647 c-16 -12 -16 -13 2 -13 10 0 19 6 19 13 0 7 -1 13 -2 13
-1 0 -9 -6 -19 -13z"/>
<path d="M2750 650 c-8 -5 -10 -10 -5 -10 6 0 17 5 25 10 8 5 11 10 5 10 -5 0
-17 -5 -25 -10z"/>
<path d="M2668 613 c7 -3 16 -2 19 1 4 3 -2 6 -13 5 -11 0 -14 -3 -6 -6z"/>
<path d="M1160 601 c0 -10 19 -25 25 -20 1 2 -3 10 -11 17 -8 7 -14 8 -14 3z"/>
<path d="M2506 601 c-19 -7 -18 -8 4 -14 13 -3 26 -4 29 -2 2 3 -2 5 -10 5
-11 0 -11 2 1 10 18 11 3 12 -24 1z"/>
<path d="M2350 576 c0 -9 -4 -14 -10 -11 -5 3 -10 2 -10 -4 0 -5 4 -12 9 -16
11 -6 26 33 17 42 -3 4 -6 -1 -6 -11z"/>
<path d="M2431 578 c-1 -10 6 -18 14 -18 8 0 15 5 15 11 0 5 -4 8 -9 5 -5 -4
-12 0 -14 6 -3 8 -6 6 -6 -4z"/>
<path d="M1106 570 c-17 -6 -18 -7 -3 -13 9 -3 19 -2 23 4 9 15 2 18 -20 9z"/>
<path d="M2250 550 c0 -5 5 -10 11 -10 5 0 7 5 4 10 -3 6 -8 10 -11 10 -2 0
-4 -4 -4 -10z"/>
<path d="M2286 535 c-19 -15 -19 -15 2 -15 13 0 22 6 22 15 0 18 0 18 -24 0z"/>
<path d="M1048 523 c7 -3 16 -2 19 1 4 3 -2 6 -13 5 -11 0 -14 -3 -6 -6z"/>
<path d="M2146 519 c4 -6 0 -15 -7 -20 -7 -4 -11 -10 -8 -14 3 -3 13 3 23 14
15 17 15 19 1 25 -10 4 -14 2 -9 -5z"/>
<path d="M2230 519 c0 -5 4 -8 9 -5 5 4 12 0 14 -6 3 -8 6 -6 6 5 1 9 -6 17
-14 17 -8 0 -15 -5 -15 -11z"/>
<path d="M2078 513 c-10 -2 -18 -9 -18 -14 0 -6 5 -7 10 -4 6 3 10 1 10 -4 0
-6 -7 -11 -15 -11 -8 0 -15 5 -15 11 0 5 -5 7 -11 3 -17 -10 17 -26 41 -19 12
4 17 11 13 18 -4 7 1 6 10 -2 9 -7 17 -11 17 -8 0 12 -13 37 -19 36 -3 -1 -14
-3 -23 -6z"/>
<path d="M940 479 c0 -5 5 -7 10 -4 6 3 10 8 10 11 0 2 -4 4 -10 4 -5 0 -10
-5 -10 -11z"/>
<path d="M1975 480 c3 -5 11 -10 16 -10 6 0 7 5 4 10 -3 6 -11 10 -16 10 -6 0
-7 -4 -4 -10z"/>
<path d="M1940 461 c0 -25 6 -27 13 -6 4 8 2 17 -3 20 -6 4 -10 -3 -10 -14z"/>
<path d="M1846 440 c4 -25 4 -25 -7 -2 -14 26 -22 27 -40 6 -10 -13 -10 -17 1
-24 7 -4 19 -6 27 -3 7 3 13 -1 13 -8 1 -9 4 -8 11 4 5 9 17 17 24 17 8 0 15
5 15 11 0 8 5 7 15 -1 13 -11 14 -10 10 3 -4 8 -22 17 -40 19 -32 4 -34 2 -29
-22z"/>
<path d="M1721 438 c1 -22 13 -43 26 -45 8 -2 10 4 6 15 -6 15 -5 15 10 3 15
-12 17 -11 17 8 0 18 -3 20 -19 11 -24 -12 -34 -13 -26 -1 3 5 1 12 -5 16 -5
3 -10 0 -9 -7z"/>
<path d="M1616 414 c-4 -11 -10 -14 -14 -8 -4 5 -18 11 -32 12 -19 1 -21 -1
-10 -8 12 -8 10 -10 -9 -10 -18 0 -21 -3 -13 -13 8 -10 6 -16 -9 -26 -12 -7
-18 -15 -15 -18 3 -3 11 -1 18 4 17 14 71 26 64 15 -3 -5 1 -9 9 -9 8 0 12 4
9 8 -6 10 33 22 45 14 5 -3 12 -1 16 5 4 6 10 8 15 5 4 -3 13 2 20 10 19 22
-13 31 -42 11 -24 -17 -42 -21 -34 -8 2 4 1 14 -3 21 -6 10 -10 8 -15 -5z m-4
-28 c7 4 8 2 4 -5 -9 -14 -36 3 -36 23 0 6 5 3 11 -7 6 -9 15 -14 21 -11z"/>
<path d="M1374 308 c-3 -4 5 -5 17 -3 30 6 36 14 9 12 -12 -1 -24 -5 -26 -9z"/>
<path d="M1370 270 c-9 -6 -10 -10 -3 -10 6 0 15 5 18 10 8 12 4 12 -15 0z"/>
<path d="M1277 239 c7 -7 15 -10 18 -7 3 3 -2 9 -12 12 -14 6 -15 5 -6 -5z"/>
<path d="M1315 230 c3 -5 8 -10 11 -10 2 0 4 5 4 10 0 6 -5 10 -11 10 -5 0 -7
-4 -4 -10z"/>
<path d="M1261 214 c0 -11 3 -14 6 -6 3 7 2 16 -1 19 -3 4 -6 -2 -5 -13z"/>
<path d="M1435 190 c-4 -6 -11 -7 -17 -4 -7 4 -8 2 -4 -5 6 -9 11 -9 22 0 14
11 18 19 10 19 -3 0 -8 -5 -11 -10z"/>
<path d="M1800 3996 c0 -2 11 -6 25 -8 13 -3 22 -1 19 3 -5 9 -44 13 -44 5z"/>
<path d="M2010 3996 c0 -2 9 -6 20 -9 11 -3 18 -1 14 4 -5 9 -34 13 -34 5z"/>
<path d="M1841 3947 c2 -1 12 -9 22 -16 15 -12 17 -12 11 3 -3 9 -13 16 -22
16 -8 0 -13 -1 -11 -3z"/>
<path d="M2120 3910 c-9 -6 -10 -10 -3 -10 6 0 15 5 18 10 8 12 4 12 -15 0z"/>
<path d="M2120 3856 c0 -2 8 -10 18 -17 15 -13 16 -12 3 4 -13 16 -21 21 -21
13z"/>
</g>
</svg>
