<?xml version="1.0" standalone="no"?>
<!DOCTYPE svg PUBLIC "-//W3C//DTD SVG 20010904//EN"
 "http://www.w3.org/TR/2001/REC-SVG-20010904/DTD/svg10.dtd">
<svg version="1.0" xmlns="http://www.w3.org/2000/svg"
 width="400.000000pt" height="400.000000pt" viewBox="0 0 400.000000 400.000000"
 preserveAspectRatio="xMidYMid meet">
<metadata>
Created by potrace 1.14, written by Peter Selinger 2001-2017
</metadata>
<g transform="translate(0.000000,400.000000) scale(0.100000,-0.100000)"
fill="#000000" stroke="none">
<path d="M0 2000 l0 -2000 2000 0 2000 0 0 2000 0 2000 -2000 0 -2000 0 0
-2000z m2350 1911 c0 -17 -38 -74 -40 -61 -13 55 -6 80 21 80 12 0 19 -7 19
-19z m-171 -60 c22 -6 23 -8 8 -22 -25 -26 -89 -7 -72 21 7 11 28 11 64 1z
m1283 -3 c0 -7 2 -17 3 -23 2 -5 3 -16 4 -22 0 -7 7 -12 14 -10 6 1 12 -5 12
-13 0 -10 -8 -14 -27 -12 -22 2 -33 -5 -57 -40 -42 -62 -82 -98 -108 -98 -13
0 -23 -3 -23 -8 0 -4 -21 -5 -46 -3 -45 3 -70 -11 -58 -31 7 -12 78 -10 90 2
12 12 89 -3 141 -27 27 -13 44 -14 105 -5 51 7 88 8 123 0 28 -5 56 -10 63
-11 13 0 16 -26 4 -43 -4 -6 -19 -14 -34 -18 -15 -3 -55 -22 -88 -42 -63 -37
-80 -41 -196 -48 -69 -4 -70 -3 -83 25 -9 21 -20 29 -37 29 -14 0 -41 7 -61
15 -19 8 -49 15 -65 15 -16 0 -43 7 -60 16 -27 14 -39 15 -84 4 -51 -12 -80
-8 -69 11 4 5 -2 10 -12 11 -32 2 -37 4 -69 23 -22 13 -31 26 -30 42 0 14 6
21 14 18 12 -4 17 12 14 49 -2 13 2 16 14 12 11 -4 15 -2 11 8 -3 8 1 17 9 20
8 3 22 22 30 41 23 56 115 81 127 35 4 -15 11 -17 46 -10 22 4 41 5 41 1 0 -3
7 3 15 13 16 21 74 46 118 50 20 2 27 -2 27 -15 0 -15 5 -16 43 -7 23 6 47 16
52 23 26 31 84 46 87 23z m-727 -40 c32 -5 72 -16 87 -24 l28 -14 -43 -38
c-23 -20 -45 -41 -49 -47 -4 -5 -8 -7 -8 -2 0 4 -8 -1 -18 -10 -10 -10 -17
-23 -15 -29 2 -6 -3 -17 -12 -24 -12 -10 -15 -10 -15 1 -1 8 -7 1 -14 -16 -7
-16 -11 -37 -8 -46 12 -49 -67 -83 -185 -78 -63 3 -97 16 -119 47 -7 11 -33
30 -56 42 -24 12 -52 30 -63 40 -20 19 -67 40 -95 44 -61 9 -66 41 -8 50 36 6
46 4 60 -13 21 -27 28 -26 28 0 0 14 5 19 15 16 8 -4 17 -2 21 4 3 6 13 7 23
4 61 -26 70 -25 109 12 31 30 47 37 100 43 34 5 76 17 93 28 35 22 57 23 144
10z m-2069 -63 c18 -13 16 -14 -23 -15 -40 0 -52 8 -36 23 11 12 38 8 59 -8z
m538 -78 c15 -11 34 -35 42 -52 7 -18 25 -47 40 -64 14 -17 21 -31 15 -31 -6
0 -11 4 -11 9 0 11 -31 24 -39 16 -3 -3 1 -11 9 -16 12 -8 10 -9 -6 -4 -14 3
-28 -1 -38 -10 -9 -9 -16 -13 -16 -10 0 4 -11 0 -25 -9 -31 -21 -144 -21 -203
-1 -24 9 -58 17 -75 19 -18 2 -31 6 -29 10 1 3 2 12 2 20 0 8 11 16 23 20 17
4 27 17 35 44 14 45 37 59 112 66 79 8 99 12 106 19 7 7 14 4 58 -26z m223 2
c6 -6 9 -17 6 -25 -3 -8 5 -15 24 -19 88 -19 123 -29 166 -48 26 -11 47 -26
47 -32 0 -7 9 -20 19 -29 14 -13 19 -28 17 -55 -4 -35 -4 -36 -47 -36 -24 1
-75 4 -114 7 -69 6 -69 7 -122 64 -29 31 -53 65 -53 75 0 10 -13 28 -30 41
-31 23 -41 58 -16 58 8 0 18 -5 21 -10 4 -6 12 -4 21 5 18 18 46 19 61 4z
m581 -47 c9 9 12 8 12 -7 0 -14 3 -16 8 -7 7 10 18 10 55 0 26 -7 47 -15 47
-19 0 -4 15 -11 33 -14 33 -8 87 -41 87 -54 0 -12 -76 -51 -99 -51 -14 0 -21
-6 -21 -20 0 -12 -7 -20 -17 -20 -10 0 -31 -11 -47 -25 -16 -13 -43 -27 -61
-31 -46 -8 -175 28 -175 50 0 4 -7 6 -15 2 -8 -3 -15 -1 -15 5 0 6 -4 8 -9 4
-6 -3 -17 12 -26 32 -10 21 -22 48 -27 60 -16 32 -4 50 39 58 21 4 43 11 48
15 6 5 40 8 77 7 42 -1 61 1 51 7 -13 7 -13 10 -2 17 8 5 20 2 29 -6 13 -11
19 -12 28 -3z m-744 -181 c-7 -7 -12 3 -18 34 l-6 30 14 -30 c8 -16 12 -32 10
-34z m-31 -13 c12 -7 23 -13 25 -14 1 -1 -4 -14 -13 -30 -21 -41 -19 -53 13
-66 15 -7 38 -20 51 -30 13 -10 34 -18 47 -18 13 0 24 -3 24 -8 0 -8 55 -29
120 -43 25 -6 50 -17 56 -24 13 -17 50 -13 119 11 33 11 79 17 133 17 45 -1
82 2 82 6 0 4 8 7 18 7 16 1 67 7 162 20 25 4 103 6 174 5 135 -1 230 -20 253
-48 14 -18 157 -30 167 -14 4 5 13 8 21 4 10 -3 15 1 16 13 1 18 1 18 6 0 4
-17 6 -16 17 5 11 23 72 45 78 28 2 -5 16 -2 31 6 21 11 34 12 55 4 15 -6 52
-15 82 -19 115 -17 235 -42 244 -51 6 -6 4 -9 -6 -9 -23 0 -33 -19 -14 -26 9
-4 30 4 49 17 29 22 41 24 132 22 196 -3 356 -10 362 -17 10 -10 -9 -24 -38
-30 -39 -6 -106 -52 -114 -77 -5 -15 -10 -18 -18 -10 -15 15 -34 14 -84 -5
-43 -17 -57 -34 -28 -34 24 0 17 -36 -11 -55 -14 -9 -42 -19 -62 -22 -20 -3
-50 -15 -66 -26 -42 -30 -136 -66 -171 -67 -16 0 -41 -7 -55 -15 -33 -19 -40
-18 -40 2 0 9 14 32 32 50 18 19 33 43 33 55 0 16 8 25 28 30 15 4 39 11 55
16 15 4 27 14 27 22 0 12 -18 15 -88 17 -76 2 -91 -1 -108 -18 -26 -26 -24
-35 11 -51 32 -14 38 -34 18 -60 -20 -24 -58 -29 -118 -13 -48 12 -69 12 -145
1 -50 -7 -93 -11 -97 -9 -17 9 -307 3 -333 -7 -42 -16 -67 -6 -131 50 -31 28
-65 50 -74 50 -10 0 -23 7 -30 15 -7 8 -18 15 -24 15 -6 0 -19 14 -28 30 -19
33 -53 50 -98 50 -16 0 -30 5 -32 12 -2 6 -24 12 -48 13 -36 1 -48 7 -70 33
-32 39 -48 40 -107 6 -35 -19 -58 -25 -94 -23 -34 2 -54 -2 -67 -14 -10 -9
-35 -17 -55 -17 -48 0 -105 -47 -79 -66 14 -10 13 -13 -6 -29 -11 -10 -19 -22
-16 -26 7 -12 -48 -65 -83 -79 -18 -7 -42 -10 -54 -7 -11 3 -35 0 -52 -8 -73
-29 -188 -25 -336 15 -20 5 -56 11 -80 14 -23 3 -64 13 -90 23 -47 17 -59 24
-143 82 -26 17 -68 41 -93 52 -42 19 -46 23 -43 52 2 26 8 32 28 32 45 2 105
38 94 56 -15 26 107 35 188 14 24 -6 34 -1 65 31 32 32 45 38 83 39 74 3 172
15 213 27 l38 11 -32 14 c-17 7 -40 13 -50 13 -31 0 -36 30 -8 53 20 16 33 18
81 13 48 -6 59 -4 64 8 7 19 8 19 37 4z m-228 -58 c0 -22 -29 -18 -33 3 -3 14
1 18 15 15 10 -2 18 -10 18 -18z m2695 -5 c0 -9 -6 -12 -16 -8 -13 5 -13 7 -2
14 17 11 18 11 18 -6z m-825 -43 c1 -17 -6 -24 -34 -32 -45 -12 -63 2 -35 28
39 37 67 38 69 4z m945 -152 c0 -5 -5 -10 -11 -10 -5 0 -7 5 -4 10 3 6 8 10
11 10 2 0 4 -4 4 -10z m-3516 -21 c8 -9 6 -10 -12 -6 -15 4 -27 -1 -37 -16
-22 -31 -8 -39 56 -32 l59 7 0 -31 c0 -38 -28 -53 -77 -39 -18 5 -39 8 -45 7
-51 -6 -63 1 -87 53 -23 50 -23 52 -5 66 23 17 130 11 148 -9z m66 -3 c0 -2
-7 -9 -15 -16 -12 -10 -15 -10 -15 4 0 9 7 16 15 16 8 0 15 -2 15 -4z m1699
-155 c10 -7 8 -12 -10 -25 -13 -9 -32 -16 -41 -16 -17 0 -17 2 -2 25 17 26 30
30 53 16z m-1739 -24 c0 -4 5 -5 10 -2 6 3 10 0 10 -8 0 -18 -33 -12 -50 9 -9
10 -7 13 9 11 12 -1 21 -5 21 -10z m1459 -19 c-9 -17 -13 -18 -20 -7 -15 24
-10 37 11 32 16 -4 18 -9 9 -25z m-1223 -23 l29 -27 -40 6 c-22 3 -59 6 -82 6
-30 0 -43 4 -43 14 0 17 12 22 66 25 33 1 48 -4 70 -24z m1227 -24 c2 -10 1
-25 -4 -32 -8 -12 -11 -11 -19 1 -11 18 -13 34 -3 43 11 12 21 8 26 -12z m377
-36 c0 -23 -36 -38 -60 -25 -26 14 -25 25 2 44 24 17 58 6 58 -19z m-1519 -96
c33 -8 78 -44 68 -53 -2 -2 -36 4 -76 14 -68 18 -105 17 -130 -2 -7 -6 -14 -5
-18 3 -4 6 4 21 20 35 30 25 46 26 136 3z m1644 -169 c-3 -5 -23 -10 -43 -10
-28 0 -33 3 -22 10 20 13 73 13 65 0z m-2135 -250 c0 -13 -30 -13 -50 0 -11 7
-7 10 18 10 17 0 32 -4 32 -10z m720 -76 c0 -9 -11 -14 -30 -14 -34 0 -36 3
-15 24 18 17 45 11 45 -10z m1110 -409 c-12 -15 -30 -12 -30 6 0 5 10 9 21 9
18 0 19 -2 9 -15z m20 -185 c0 -5 -7 -10 -16 -10 -8 0 -12 5 -9 10 3 6 10 10
16 10 5 0 9 -4 9 -10z m487 -72 c-3 -8 -6 -5 -6 6 -1 11 2 17 5 13 3 -3 4 -12
1 -19z m-1149 -130 c-3 -7 -15 -15 -28 -16 -21 -3 -22 -2 -11 12 16 19 44 21
39 4z m2484 -33 c28 -11 39 -97 17 -138 -9 -16 -9 -22 1 -25 10 -4 10 -6 0
-12 -7 -4 -13 -18 -14 -31 -1 -18 -8 -25 -28 -27 -35 -4 -35 -18 -3 -44 29
-23 32 -36 8 -45 -22 -8 -43 -35 -37 -45 10 -15 24 -8 24 12 0 27 18 25 22 -2
2 -13 9 -22 16 -21 24 5 12 -43 -15 -64 -54 -39 -157 -83 -197 -83 -19 0 -66
-43 -66 -61 0 -5 -19 -9 -42 -9 -27 0 -52 -8 -68 -20 -14 -11 -33 -20 -43 -20
-10 0 -16 -4 -13 -9 7 -10 -16 -21 -44 -21 -10 0 -21 -4 -24 -8 -5 -9 118 -8
192 3 36 5 57 3 67 -5 11 -9 15 -9 15 -1 0 6 8 11 17 11 15 0 15 -1 -1 -13
-15 -11 -16 -18 -9 -32 13 -22 5 -64 -8 -43 -7 10 -9 9 -9 -5 0 -13 -7 -17
-32 -15 -26 2 -35 -2 -43 -19 -6 -14 -19 -23 -31 -23 -12 0 -27 -7 -34 -15 -7
-8 -25 -15 -40 -15 -15 0 -52 -14 -83 -30 -31 -16 -63 -30 -71 -30 -8 0 -21
-7 -30 -15 -14 -14 -21 -14 -72 -1 -38 10 -64 12 -81 5 -32 -12 -33 -12 -33 6
0 8 -4 15 -10 15 -5 0 -10 9 -10 20 0 11 -4 20 -10 20 -5 0 -10 12 -10 28 0
21 8 30 33 42 20 9 33 24 35 38 3 21 1 22 -17 12 -16 -8 -21 -8 -21 1 0 7 -11
9 -30 5 -22 -4 -29 -2 -24 5 4 7 1 10 -7 7 -13 -4 -49 31 -49 47 0 4 -9 18
-19 31 -13 17 -21 21 -25 12 -3 -7 -3 -3 0 10 6 23 -22 122 -34 122 -10 0 -34
58 -28 68 2 4 17 7 33 6 15 -1 36 3 46 8 10 5 74 16 143 24 111 13 130 18 162
43 50 39 99 46 161 24 41 -14 56 -15 83 -6 18 7 76 15 128 18 137 10 136 9
135 147 -1 62 -4 118 -8 124 -6 11 26 44 43 44 6 0 10 4 10 9 0 9 47 1 82 -14z
m-3487 -174 c6 -10 -21 -41 -35 -41 -14 0 -22 19 -16 35 6 17 42 20 51 6z
m2376 -280 c14 -7 33 -27 42 -44 9 -18 34 -57 57 -87 24 -34 43 -73 48 -102 8
-43 7 -49 -15 -70 -33 -31 -25 -49 26 -62 36 -9 48 -18 62 -46 29 -59 32 -79
14 -87 -9 -3 -28 -17 -41 -29 -12 -13 -32 -24 -43 -24 -11 0 -27 -10 -35 -21
-10 -14 -28 -23 -53 -25 -48 -4 -100 -19 -120 -35 -8 -7 -33 -12 -55 -10 -34
2 -40 -1 -34 -15 5 -12 2 -15 -10 -10 -9 4 -22 1 -30 -5 -7 -6 -28 -13 -46
-15 -18 -2 -45 -6 -60 -9 -16 -2 -28 0 -28 5 0 16 -22 12 -43 -8 -12 -11 -38
-18 -71 -19 -90 -3 -111 -7 -108 -21 4 -19 -48 -35 -75 -23 -13 6 -23 7 -23 3
0 -11 -98 -32 -148 -32 -24 0 -53 -5 -64 -11 -15 -8 -22 -8 -28 1 -4 7 -10 8
-13 3 -4 -6 -26 -10 -49 -11 -24 -1 -74 -5 -113 -9 -99 -11 -135 -6 -135 18 0
26 -18 24 -23 -3 -2 -13 -2 -1 0 27 2 27 7 52 11 55 4 3 13 16 20 30 7 14 31
34 52 44 22 11 40 22 40 26 0 12 -26 30 -33 23 -4 -3 -7 -2 -7 4 0 5 -13 8
-30 5 -38 -5 -48 16 -25 55 12 21 14 37 8 68 l-9 40 -58 3 c-32 2 -66 0 -75
-4 -28 -13 -48 -12 -48 2 0 8 11 14 24 14 13 0 22 4 19 8 -8 13 28 39 64 47
17 4 34 14 38 23 10 28 52 70 80 81 38 15 182 51 204 51 10 0 47 10 81 21 34
12 80 25 102 29 137 26 149 30 181 66 32 35 33 35 63 20 41 -22 96 -20 118 3
19 19 23 20 163 46 198 36 190 35 231 16z m962 -255 c4 -9 -3 -16 -16 -20 -24
-6 -43 7 -33 23 10 16 43 14 49 -3z m-2445 -170 c5 -3 7 -19 4 -36 l-4 -30 83
0 c45 0 97 5 116 12 44 16 51 5 25 -43 -12 -23 -22 -47 -22 -54 0 -19 -39 -45
-67 -45 -22 0 -33 -4 -85 -32 -13 -7 -48 -15 -78 -20 -98 -14 -264 -30 -305
-29 -190 1 -215 6 -215 40 0 15 88 81 108 81 5 0 15 7 22 15 7 8 21 15 32 15
11 0 29 11 40 25 11 14 26 25 33 25 8 0 19 9 25 20 7 14 21 20 43 20 18 0 43
7 55 16 13 9 35 20 50 24 28 9 124 6 140 -4z m64 -299 c41 -14 59 -27 39 -27
-18 0 -43 -28 -36 -41 4 -6 -2 -13 -14 -16 -12 -3 -21 -10 -21 -15 0 -6 -11
-8 -25 -6 -14 3 -25 1 -25 -3 0 -19 -60 -8 -87 16 -28 25 -28 25 -8 41 11 8
32 18 48 21 15 3 27 9 27 13 0 8 39 28 55 29 6 0 27 -5 47 -12z m185 -29 c-3
-8 -6 -5 -6 6 -1 11 2 17 5 13 3 -3 4 -12 1 -19z m1461 -36 c6 -20 -105 -65
-146 -57 -19 4 -39 2 -47 -5 -16 -13 -28 1 -19 25 4 9 13 14 22 10 8 -3 20 2
26 11 7 9 26 17 43 18 18 1 34 3 36 6 11 11 81 4 85 -8z"/>
<path d="M2655 3720 c3 -5 8 -10 11 -10 2 0 4 5 4 10 0 6 -5 10 -11 10 -5 0
-7 -4 -4 -10z"/>
<path d="M2691 3694 c0 -11 3 -14 6 -6 3 7 2 16 -1 19 -3 4 -6 -2 -5 -13z"/>
<path d="M2210 3650 c0 -5 5 -10 10 -10 6 0 10 5 10 10 0 6 -4 10 -10 10 -5 0
-10 -4 -10 -10z"/>
<path d="M3298 3143 c7 -3 16 -2 19 1 4 3 -2 6 -13 5 -11 0 -14 -3 -6 -6z"/>
<path d="M2508 323 c7 -3 16 -2 19 1 4 3 -2 6 -13 5 -11 0 -14 -3 -6 -6z"/>
</g>
</svg>
